<svg width="397" height="383" viewBox="0 0 397 383" fill="none" xmlns="http://www.w3.org/2000/svg">
<g filter="url(#filter0_d_436_1962)">
<rect x="16" y="8" width="365" height="351" rx="4" fill="white"/>
</g>
<path d="M284.076 304.168L283.991 311.999L283.155 311.999L283.218 306.181L280.614 311.999L279.976 311.999L277.475 306.225L277.424 311.999L276.588 311.999L276.673 304.168L277.421 304.168L280.317 310.921L283.328 304.168L284.076 304.168ZM290.746 306.467L290.686 311.999L289.806 311.999L289.816 310.998C289.651 311.343 289.403 311.611 289.071 311.801C288.746 311.985 288.367 312.076 287.935 312.076C287.443 312.076 287.012 311.959 286.641 311.724C286.276 311.49 285.994 311.16 285.793 310.734C285.6 310.302 285.507 309.799 285.513 309.228C285.519 308.656 285.627 308.153 285.837 307.721C286.047 307.281 286.337 306.94 286.706 306.698C287.083 306.456 287.513 306.335 287.997 306.335C288.43 306.335 288.807 306.43 289.127 306.621C289.448 306.811 289.69 307.079 289.855 307.424L289.866 306.467L290.746 306.467ZM288.119 311.339C288.661 311.339 289.081 311.156 289.379 310.789C289.676 310.415 289.829 309.887 289.836 309.206C289.843 308.524 289.702 307.999 289.413 307.633C289.124 307.266 288.708 307.083 288.165 307.083C287.622 307.083 287.195 307.273 286.883 307.655C286.578 308.029 286.422 308.553 286.415 309.228C286.407 309.902 286.552 310.423 286.849 310.789C287.145 311.156 287.569 311.339 288.119 311.339ZM297.33 306.467L294.68 312.505C294.402 313.136 294.056 313.598 293.642 313.891C293.228 314.185 292.72 314.386 292.117 314.496L291.938 313.803C292.46 313.686 292.854 313.528 293.12 313.33C293.393 313.14 293.62 312.843 293.8 312.439L294.026 311.944L291.742 306.467L292.677 306.467L294.498 311.031L296.439 306.467L297.33 306.467Z" fill="#999999"/>
<path d="M234.378 309.986L230.286 309.986L229.395 311.999L228.46 311.999L231.988 304.168L232.78 304.168L236.138 311.999L235.214 311.999L234.378 309.986ZM234.067 309.239L232.384 305.213L230.613 309.239L234.067 309.239ZM240.021 306.335C240.505 306.335 240.932 306.456 241.304 306.698C241.675 306.94 241.961 307.281 242.162 307.721C242.362 308.153 242.459 308.656 242.453 309.228C242.447 309.799 242.339 310.302 242.129 310.734C241.919 311.16 241.625 311.49 241.249 311.724C240.88 311.959 240.449 312.076 239.958 312.076C239.525 312.076 239.149 311.981 238.828 311.79C238.508 311.6 238.265 311.328 238.1 310.976L238.063 314.375L237.172 314.375L237.241 308.018C237.248 307.446 237.224 306.929 237.17 306.467L238.017 306.467L238.094 307.534C238.252 307.152 238.497 306.859 238.829 306.654C239.169 306.441 239.566 306.335 240.021 306.335ZM239.801 311.339C240.344 311.339 240.764 311.156 241.061 310.789C241.366 310.423 241.522 309.902 241.529 309.228C241.536 308.553 241.392 308.029 241.095 307.655C240.799 307.273 240.383 307.083 239.847 307.083C239.297 307.083 238.874 307.266 238.576 307.633C238.279 307.999 238.127 308.524 238.119 309.206C238.112 309.887 238.253 310.415 238.542 310.789C238.831 311.156 239.251 311.339 239.801 311.339ZM246.429 306.335C246.613 306.335 246.781 306.357 246.935 306.401L246.904 307.215C246.736 307.156 246.542 307.127 246.322 307.127C245.786 307.127 245.385 307.295 245.117 307.633C244.857 307.963 244.724 308.366 244.719 308.843L244.685 311.999L243.794 311.999L243.837 308.018C243.843 307.446 243.819 306.929 243.766 306.467L244.613 306.467L244.69 307.49C244.833 307.116 245.06 306.83 245.37 306.632C245.68 306.434 246.033 306.335 246.429 306.335Z" fill="#999999"/>
<path d="M191.114 304.168L191.028 311.999L190.192 311.999L190.256 306.181L187.651 311.999L187.013 311.999L184.513 306.225L184.461 311.999L183.625 311.999L183.711 304.168L184.459 304.168L187.355 310.921L190.366 304.168L191.114 304.168ZM197.784 306.467L197.723 311.999L196.843 311.999L196.854 310.998C196.689 311.343 196.441 311.611 196.109 311.801C195.784 311.985 195.405 312.076 194.973 312.076C194.481 312.076 194.05 311.959 193.678 311.724C193.314 311.49 193.032 311.16 192.831 310.734C192.638 310.302 192.544 309.799 192.551 309.228C192.557 308.656 192.665 308.153 192.875 307.721C193.085 307.281 193.375 306.94 193.744 306.698C194.121 306.456 194.551 306.335 195.035 306.335C195.468 306.335 195.844 306.43 196.165 306.621C196.486 306.811 196.728 307.079 196.893 307.424L196.904 306.467L197.784 306.467ZM195.157 311.339C195.699 311.339 196.119 311.156 196.417 310.789C196.714 310.415 196.866 309.887 196.874 309.206C196.881 308.524 196.74 307.999 196.451 307.633C196.162 307.266 195.746 307.083 195.203 307.083C194.66 307.083 194.233 307.273 193.921 307.655C193.616 308.029 193.46 308.553 193.453 309.228C193.445 309.902 193.59 310.423 193.887 310.789C194.183 311.156 194.607 311.339 195.157 311.339ZM202.082 306.335C202.265 306.335 202.433 306.357 202.587 306.401L202.556 307.215C202.388 307.156 202.194 307.127 201.974 307.127C201.439 307.127 201.037 307.295 200.77 307.633C200.509 307.963 200.377 308.366 200.371 308.843L200.337 311.999L199.446 311.999L199.489 308.018C199.496 307.446 199.472 306.929 199.418 306.467L200.265 306.467L200.342 307.49C200.486 307.116 200.712 306.83 201.023 306.632C201.333 306.434 201.686 306.335 202.082 306.335Z" fill="#999999"/>
<path d="M132.976 304.168L137.816 304.168L137.807 304.927L133.858 304.927L133.829 307.644L137.558 307.644L137.549 308.403L133.82 308.403L133.781 311.999L132.89 311.999L132.976 304.168ZM143.532 309.206L139.473 309.206C139.473 309.909 139.629 310.441 139.94 310.8C140.259 311.16 140.723 311.339 141.331 311.339C141.977 311.339 142.573 311.123 143.12 310.69L143.41 311.339C143.166 311.567 142.852 311.746 142.469 311.878C142.094 312.01 141.708 312.076 141.312 312.076C140.447 312.076 139.771 311.823 139.286 311.317C138.8 310.804 138.562 310.104 138.571 309.217C138.578 308.652 138.693 308.153 138.918 307.721C139.142 307.281 139.454 306.94 139.853 306.698C140.251 306.456 140.704 306.335 141.21 306.335C141.943 306.335 142.516 306.577 142.929 307.061C143.342 307.537 143.543 308.197 143.534 309.041L143.532 309.206ZM141.213 307.028C140.751 307.028 140.372 307.167 140.076 307.446C139.787 307.724 139.599 308.117 139.513 308.623L142.736 308.623C142.698 308.102 142.548 307.706 142.287 307.435C142.033 307.163 141.675 307.028 141.213 307.028ZM147.677 306.335C148.161 306.335 148.589 306.452 148.96 306.687C149.332 306.921 149.618 307.255 149.818 307.688C150.019 308.113 150.116 308.612 150.11 309.184C150.104 309.755 149.996 310.261 149.786 310.701C149.576 311.134 149.282 311.471 148.906 311.713C148.529 311.955 148.099 312.076 147.615 312.076C147.182 312.076 146.805 311.981 146.485 311.79C146.164 311.6 145.921 311.328 145.757 310.976L145.745 311.999L144.854 311.999L144.943 303.904L145.834 303.904L145.795 307.446C145.96 307.086 146.205 306.811 146.53 306.621C146.862 306.43 147.244 306.335 147.677 306.335ZM147.458 311.339C147.993 311.339 148.413 311.152 148.718 310.778C149.023 310.397 149.179 309.865 149.186 309.184C149.193 308.516 149.049 307.999 148.752 307.633C148.463 307.266 148.047 307.083 147.504 307.083C146.954 307.083 146.53 307.266 146.233 307.633C145.936 307.999 145.783 308.524 145.776 309.206C145.768 309.887 145.909 310.415 146.199 310.789C146.488 311.156 146.908 311.339 147.458 311.339Z" fill="#999999"/>
<path d="M327.15 313.176C327.479 313.235 327.743 313.264 327.941 313.264C328.315 313.264 328.577 313.158 328.726 312.945C328.882 312.74 328.963 312.384 328.968 311.878L329.052 304.168L329.954 304.168L329.87 311.889C329.862 312.652 329.716 313.202 329.434 313.539C329.159 313.877 328.706 314.045 328.076 314.045C327.826 314.045 327.515 314.016 327.142 313.957L327.15 313.176ZM336.387 306.467L336.327 311.999L335.458 311.999L335.468 311.042C335.289 311.38 335.04 311.636 334.723 311.812C334.406 311.988 334.049 312.076 333.653 312.076C333 312.076 332.507 311.893 332.174 311.526C331.841 311.16 331.678 310.617 331.686 309.898L331.723 306.467L332.614 306.467L332.577 309.876C332.572 310.375 332.67 310.742 332.873 310.976C333.076 311.211 333.386 311.328 333.804 311.328C334.296 311.328 334.693 311.171 334.997 310.855C335.302 310.533 335.457 310.111 335.462 309.59L335.496 306.467L336.387 306.467ZM340.867 306.335C342.195 306.335 342.85 307.064 342.834 308.524L342.797 311.999L341.906 311.999L341.943 308.568C341.949 308.054 341.85 307.68 341.647 307.446C341.444 307.204 341.123 307.083 340.683 307.083C340.17 307.083 339.757 307.24 339.446 307.556C339.135 307.871 338.976 308.296 338.97 308.832L338.936 311.999L338.045 311.999L338.088 308.018C338.094 307.446 338.07 306.929 338.017 306.467L338.864 306.467L338.941 307.457C339.114 307.097 339.37 306.822 339.709 306.632C340.049 306.434 340.435 306.335 340.867 306.335Z" fill="#999999"/>
<path d="M84.9465 313.176C85.2758 313.235 85.5395 313.264 85.7375 313.264C86.1115 313.264 86.373 313.158 86.522 312.945C86.6782 312.74 86.7591 312.384 86.7646 311.878L86.8485 304.168L87.7505 304.168L87.6665 311.889C87.6582 312.652 87.5128 313.202 87.2305 313.539C86.9555 313.877 86.5027 314.045 85.872 314.045C85.6227 314.045 85.3113 314.016 84.938 313.957L84.9465 313.176ZM94.4256 306.467L94.3654 311.999L93.4854 311.999L93.4963 310.998C93.3312 311.343 93.0826 311.611 92.7505 311.801C92.4259 311.985 92.0472 312.076 91.6145 312.076C91.1232 312.076 90.6918 311.959 90.3204 311.724C89.9563 311.49 89.6738 311.16 89.4731 310.734C89.2799 310.302 89.1863 309.799 89.1925 309.228C89.1988 308.656 89.3069 308.153 89.5169 307.721C89.7271 307.281 90.0168 306.94 90.3861 306.698C90.7627 306.456 91.193 306.335 91.677 306.335C92.1097 306.335 92.4863 306.43 92.8069 306.621C93.1275 306.811 93.3703 307.079 93.5352 307.424L93.5456 306.467L94.4256 306.467ZM91.7986 311.339C92.3412 311.339 92.7612 311.156 93.0585 310.789C93.3559 310.415 93.5084 309.887 93.5158 309.206C93.5232 308.524 93.3822 307.999 93.0929 307.633C92.8036 307.266 92.3876 307.083 91.8449 307.083C91.3022 307.083 90.8748 307.273 90.5627 307.655C90.2579 308.029 90.1019 308.553 90.0945 309.228C90.0872 309.902 90.2319 310.423 90.5285 310.789C90.8252 311.156 91.2486 311.339 91.7986 311.339ZM98.9107 306.335C100.238 306.335 100.894 307.064 100.878 308.524L100.84 311.999L99.9491 311.999L99.9864 308.568C99.992 308.054 99.8934 307.68 99.6906 307.446C99.4879 307.204 99.1666 307.083 98.7266 307.083C98.2133 307.083 97.8009 307.24 97.4894 307.556C97.178 307.871 97.0194 308.296 97.0136 308.832L96.9791 311.999L96.0881 311.999L96.1314 308.018C96.1376 307.446 96.1139 306.929 96.0603 306.467L96.9073 306.467L96.9845 307.457C97.1571 307.097 97.4131 306.822 97.7525 306.632C98.092 306.434 98.4781 306.335 98.9107 306.335Z" fill="#999999"/>
<path d="M82.3807 278.778L339.381 278.778" stroke="#E4E4E4" stroke-opacity="0.2" stroke-linecap="square"/>
<path d="M82.7831 241.833L339.783 241.833" stroke="#E4E4E4" stroke-opacity="0.2" stroke-linecap="square"/>
<path d="M83.1854 204.889L340.185 204.889" stroke="#E4E4E4" stroke-opacity="0.2" stroke-linecap="square"/>
<path d="M83.5868 167.943L340.587 167.943" stroke="#E4E4E4" stroke-opacity="0.2" stroke-linecap="square"/>
<path d="M83.9891 130.999L340.989 130.999" stroke="#E4E4E4" stroke-opacity="0.2" stroke-linecap="square"/>
<path d="M86.881 219.735C88.0653 218.219 92.9848 221.609 99.0695 219.686C103.86 218.172 108.067 213.309 114.195 211.84C125.827 209.051 135.327 206.185 140.78 199.524C146.232 192.864 154.554 170.279 164.177 170.279C173.801 170.279 178.571 182.026 182.118 189.764C185.514 197.176 192.018 214.978 202.827 216.941C214.756 219.108 224.442 232.319 238.68 234.539C246.269 235.723 252.384 233.419 259.218 229.84C266.051 226.261 264.738 224.715 280.049 221.956C292.684 219.679 296.068 211.84 308.435 210.897C320.802 209.953 326.196 239.471 339.269 237.007" stroke="#5F2EEA" stroke-width="2" stroke-linecap="round" stroke-linejoin="round"/>
<g filter="url(#filter1_dd_436_1962)">
<rect width="13.719" height="13.98" rx="6.85949" transform="matrix(1 1.30383e-08 -0.0108829 0.999941 159.401 161.778)" fill="#5F2EEA"/>
<rect x="0.989117" y="0.999941" width="11.719" height="11.98" rx="5.85949" transform="matrix(1 1.30383e-08 -0.0108829 0.999941 159.412 161.778)" stroke="white" stroke-width="2"/>
</g>
<path d="M67.9356 280.876C67.9292 281.463 67.7149 281.954 67.2926 282.35C66.8703 282.746 66.314 282.985 65.6238 283.065L65.6106 284.275L64.8406 284.275L64.8537 283.076C64.348 283.047 63.8797 282.948 63.4489 282.779C63.0254 282.611 62.654 282.376 62.3346 282.075L62.6831 281.382C63.0318 281.683 63.3814 281.907 63.7318 282.053C64.0895 282.2 64.4773 282.284 64.895 282.306L64.9255 279.513C64.4209 279.381 64.0044 279.241 63.676 279.095C63.3476 278.948 63.0712 278.735 62.8469 278.457C62.6301 278.171 62.5241 277.797 62.5292 277.335C62.5335 276.931 62.6365 276.568 62.838 276.246C63.0469 275.923 63.332 275.663 63.6935 275.465C64.0551 275.259 64.4708 275.135 64.9406 275.091L64.9536 273.892L65.7236 273.892L65.7105 275.102C66.1354 275.138 66.5376 275.241 66.9171 275.41C67.3039 275.578 67.6315 275.798 67.8999 276.07L67.5514 276.763C67.0216 276.249 66.3942 275.952 65.6691 275.872L65.6369 278.831C66.1196 278.948 66.5179 279.076 66.8317 279.216C67.1528 279.355 67.4183 279.56 67.628 279.832C67.8378 280.096 67.9403 280.444 67.9356 280.876ZM63.4535 277.302C63.4494 277.676 63.5747 277.962 63.8292 278.16C64.0837 278.358 64.4522 278.523 64.9348 278.655L64.9651 275.872C64.4953 275.916 64.127 276.066 63.8602 276.323C63.5935 276.572 63.4579 276.898 63.4535 277.302ZM65.5993 282.284C66.0473 282.226 66.3935 282.079 66.6381 281.844C66.89 281.602 67.0181 281.287 67.0224 280.898C67.0259 280.576 66.9076 280.327 66.6675 280.151C66.4275 279.967 66.0809 279.813 65.6275 279.689L65.5993 282.284ZM71.7243 283.087C70.8296 283.087 70.1513 282.75 69.6893 282.075C69.2347 281.393 69.0145 280.396 69.0288 279.084C69.0431 277.771 69.2849 276.777 69.7543 276.103C70.231 275.421 70.9167 275.08 71.8114 275.08C72.7061 275.08 73.3807 275.421 73.8353 276.103C74.2973 276.777 74.5212 277.767 74.5069 279.073C74.4927 280.385 74.2471 281.382 73.7704 282.064C73.301 282.746 72.6189 283.087 71.7243 283.087ZM71.7325 282.328C72.3558 282.328 72.8171 282.064 73.1161 281.536C73.4225 281.008 73.5818 280.187 73.5939 279.073C73.606 277.965 73.4682 277.151 73.1805 276.631C72.8929 276.11 72.4337 275.85 71.803 275.85C71.1797 275.85 70.7149 276.11 70.4085 276.631C70.1095 277.151 69.954 277.965 69.9419 279.073C69.9299 280.18 70.0676 281.001 70.3551 281.536C70.6501 282.064 71.1092 282.328 71.7325 282.328Z" fill="#999999"/>
<path d="M55.7442 243.876C55.7378 244.463 55.5235 244.954 55.1012 245.35C54.6789 245.746 54.1226 245.985 53.4324 246.065L53.4192 247.275L52.6492 247.275L52.6623 246.076C52.1566 246.047 51.6883 245.948 51.2575 245.779C50.834 245.611 50.4626 245.376 50.1432 245.075L50.4917 244.382C50.8404 244.683 51.19 244.907 51.5404 245.053C51.8981 245.2 52.2859 245.284 52.7036 245.306L52.7341 242.513C52.2295 242.381 51.813 242.241 51.4846 242.095C51.1562 241.948 50.8798 241.735 50.6555 241.457C50.4387 241.171 50.3327 240.797 50.3378 240.335C50.3421 239.931 50.4451 239.568 50.6466 239.246C50.8555 238.923 51.1406 238.663 51.5021 238.465C51.8637 238.259 52.2794 238.135 52.7492 238.091L52.7622 236.892L53.5322 236.892L53.5191 238.102C53.944 238.138 54.3462 238.241 54.7257 238.41C55.1125 238.578 55.4401 238.798 55.7085 239.07L55.36 239.763C54.8302 239.249 54.2028 238.952 53.4777 238.872L53.4455 241.831C53.9282 241.948 54.3265 242.076 54.6403 242.216C54.9614 242.355 55.2269 242.56 55.4366 242.832C55.6464 243.096 55.7489 243.444 55.7442 243.876ZM51.2621 240.302C51.258 240.676 51.3833 240.962 51.6378 241.16C51.8923 241.358 52.2608 241.523 52.7434 241.655L52.7737 238.872C52.3039 238.916 51.9356 239.066 51.6688 239.323C51.4021 239.572 51.2665 239.898 51.2621 240.302ZM53.4079 245.284C53.8559 245.226 54.2021 245.079 54.4467 244.844C54.6986 244.602 54.8267 244.287 54.831 243.898C54.8345 243.576 54.7162 243.327 54.4761 243.151C54.2361 242.967 53.8894 242.813 53.4361 242.689L53.4079 245.284ZM62.1931 245.24L62.1848 245.999L57.1468 245.999L57.1542 245.317L59.9263 242.282C60.2974 241.871 60.5691 241.501 60.7414 241.171C60.9136 240.841 61.0015 240.511 61.0051 240.181C61.0098 239.748 60.8888 239.418 60.6419 239.191C60.3951 238.956 60.0407 238.839 59.5787 238.839C58.8307 238.839 58.0868 239.139 57.3469 239.741L57.0135 239.048C57.3247 238.754 57.7159 238.52 58.1871 238.344C58.6584 238.168 59.1323 238.08 59.609 238.08C60.3277 238.08 60.894 238.267 61.3079 238.641C61.7219 239.007 61.9255 239.506 61.9186 240.137C61.9137 240.584 61.8064 241.017 61.5965 241.435C61.394 241.845 61.0553 242.307 60.5804 242.821L58.3211 245.24L62.1931 245.24ZM66.1286 246.087C65.2339 246.087 64.5556 245.75 64.0936 245.075C63.639 244.393 63.4188 243.396 63.4331 242.084C63.4474 240.771 63.6892 239.777 64.1586 239.103C64.6353 238.421 65.321 238.08 66.2157 238.08C67.1104 238.08 67.785 238.421 68.2396 239.103C68.7016 239.777 68.9255 240.767 68.9112 242.073C68.897 243.385 68.6514 244.382 68.1747 245.064C67.7053 245.746 67.0232 246.087 66.1286 246.087ZM66.1368 245.328C66.7601 245.328 67.2214 245.064 67.5204 244.536C67.8268 244.008 67.9861 243.187 67.9982 242.073C68.0103 240.965 67.8725 240.151 67.5848 239.631C67.2972 239.11 66.838 238.85 66.2073 238.85C65.584 238.85 65.1192 239.11 64.8128 239.631C64.5138 240.151 64.3583 240.965 64.3462 242.073C64.3342 243.18 64.4719 244.001 64.7594 244.536C65.0544 245.064 65.5135 245.328 66.1368 245.328ZM72.7243 246.087C71.8296 246.087 71.1513 245.75 70.6893 245.075C70.2347 244.393 70.0145 243.396 70.0288 242.084C70.0431 240.771 70.2849 239.777 70.7543 239.103C71.231 238.421 71.9167 238.08 72.8114 238.08C73.7061 238.08 74.3807 238.421 74.8353 239.103C75.2973 239.777 75.5212 240.767 75.5069 242.073C75.4927 243.385 75.2471 244.382 74.7704 245.064C74.301 245.746 73.6189 246.087 72.7243 246.087ZM72.7325 245.328C73.3558 245.328 73.8171 245.064 74.1161 244.536C74.4225 244.008 74.5818 243.187 74.5939 242.073C74.606 240.965 74.4682 240.151 74.1805 239.631C73.8929 239.11 73.4337 238.85 72.803 238.85C72.1797 238.85 71.7149 239.11 71.4085 239.631C71.1095 240.151 70.954 240.965 70.9419 242.073C70.9299 243.18 71.0676 244.001 71.3551 244.536C71.6501 245.064 72.1092 245.328 72.7325 245.328Z" fill="#999999"/>
<path d="M55.7442 206.876C55.7378 207.463 55.5235 207.954 55.1012 208.35C54.6789 208.746 54.1226 208.985 53.4324 209.065L53.4192 210.275L52.6492 210.275L52.6623 209.076C52.1566 209.047 51.6883 208.948 51.2575 208.779C50.834 208.611 50.4626 208.376 50.1432 208.075L50.4917 207.382C50.8404 207.683 51.19 207.907 51.5404 208.053C51.8981 208.2 52.2859 208.284 52.7036 208.306L52.7341 205.513C52.2295 205.381 51.813 205.241 51.4846 205.095C51.1562 204.948 50.8798 204.735 50.6555 204.457C50.4387 204.171 50.3327 203.797 50.3378 203.335C50.3421 202.931 50.4451 202.568 50.6466 202.246C50.8555 201.923 51.1406 201.663 51.5021 201.465C51.8637 201.259 52.2794 201.135 52.7492 201.091L52.7622 199.892L53.5322 199.892L53.5191 201.102C53.944 201.138 54.3462 201.241 54.7257 201.41C55.1125 201.578 55.4401 201.798 55.7085 202.07L55.36 202.763C54.8302 202.249 54.2028 201.952 53.4777 201.872L53.4455 204.831C53.9282 204.948 54.3265 205.076 54.6403 205.216C54.9614 205.355 55.2269 205.56 55.4366 205.832C55.6464 206.096 55.7489 206.444 55.7442 206.876ZM51.2621 203.302C51.258 203.676 51.3833 203.962 51.6378 204.16C51.8923 204.358 52.2608 204.523 52.7434 204.655L52.7737 201.872C52.3039 201.916 51.9356 202.066 51.6688 202.323C51.4021 202.572 51.2665 202.898 51.2621 203.302ZM53.4079 208.284C53.8559 208.226 54.2021 208.079 54.4467 207.844C54.6986 207.602 54.8267 207.287 54.831 206.898C54.8345 206.576 54.7162 206.327 54.4761 206.151C54.2361 205.967 53.8894 205.813 53.4361 205.689L53.4079 208.284ZM62.4894 207.294L61.3014 207.294L61.2828 208.999L60.3808 208.999L60.3994 207.294L56.7914 207.294L56.7988 206.612L60.631 201.168L61.368 201.168L61.3095 206.546L62.4975 206.546L62.4894 207.294ZM60.4075 206.546L60.4494 202.697L57.7345 206.546L60.4075 206.546ZM66.1286 209.087C65.2339 209.087 64.5556 208.75 64.0936 208.075C63.639 207.393 63.4188 206.396 63.4331 205.084C63.4474 203.771 63.6892 202.777 64.1586 202.103C64.6353 201.421 65.321 201.08 66.2157 201.08C67.1104 201.08 67.785 201.421 68.2396 202.103C68.7016 202.777 68.9255 203.767 68.9112 205.073C68.897 206.385 68.6514 207.382 68.1747 208.064C67.7053 208.746 67.0232 209.087 66.1286 209.087ZM66.1368 208.328C66.7601 208.328 67.2214 208.064 67.5204 207.536C67.8268 207.008 67.9861 206.187 67.9982 205.073C68.0103 203.965 67.8725 203.151 67.5848 202.631C67.2972 202.11 66.838 201.85 66.2073 201.85C65.584 201.85 65.1192 202.11 64.8128 202.631C64.5138 203.151 64.3583 203.965 64.3462 205.073C64.3342 206.18 64.4719 207.001 64.7594 207.536C65.0544 208.064 65.5135 208.328 66.1368 208.328ZM72.7243 209.087C71.8296 209.087 71.1513 208.75 70.6893 208.075C70.2347 207.393 70.0145 206.396 70.0288 205.084C70.0431 203.771 70.2849 202.777 70.7543 202.103C71.231 201.421 71.9167 201.08 72.8114 201.08C73.7061 201.08 74.3807 201.421 74.8353 202.103C75.2973 202.777 75.5212 203.767 75.5069 205.073C75.4927 206.385 75.2471 207.382 74.7704 208.064C74.301 208.746 73.6189 209.087 72.7243 209.087ZM72.7325 208.328C73.3558 208.328 73.8171 208.064 74.1161 207.536C74.4225 207.008 74.5818 206.187 74.5939 205.073C74.606 203.965 74.4682 203.151 74.1805 202.631C73.8929 202.11 73.4337 201.85 72.803 201.85C72.1797 201.85 71.7149 202.11 71.4085 202.631C71.1095 203.151 70.954 203.965 70.9419 205.073C70.9299 206.18 71.0676 207.001 71.3551 207.536C71.6501 208.064 72.1092 208.328 72.7325 208.328Z" fill="#999999"/>
<path d="M55.7442 169.876C55.7378 170.463 55.5235 170.954 55.1012 171.35C54.6789 171.746 54.1226 171.985 53.4324 172.065L53.4192 173.275L52.6492 173.275L52.6623 172.076C52.1566 172.047 51.6883 171.948 51.2575 171.779C50.834 171.611 50.4626 171.376 50.1432 171.075L50.4917 170.382C50.8404 170.683 51.19 170.907 51.5404 171.053C51.8981 171.2 52.2859 171.284 52.7036 171.306L52.7341 168.513C52.2295 168.381 51.813 168.241 51.4846 168.095C51.1562 167.948 50.8798 167.735 50.6555 167.457C50.4387 167.171 50.3327 166.797 50.3378 166.335C50.3421 165.931 50.4451 165.568 50.6466 165.246C50.8555 164.923 51.1406 164.663 51.5021 164.465C51.8637 164.259 52.2794 164.135 52.7492 164.091L52.7622 162.892L53.5322 162.892L53.5191 164.102C53.944 164.138 54.3462 164.241 54.7257 164.41C55.1125 164.578 55.4401 164.798 55.7085 165.07L55.36 165.763C54.8302 165.249 54.2028 164.952 53.4777 164.872L53.4455 167.831C53.9282 167.948 54.3265 168.076 54.6403 168.216C54.9614 168.355 55.2269 168.56 55.4366 168.832C55.6464 169.096 55.7489 169.444 55.7442 169.876ZM51.2621 166.302C51.258 166.676 51.3833 166.962 51.6378 167.16C51.8923 167.358 52.2608 167.523 52.7434 167.655L52.7737 164.872C52.3039 164.916 51.9356 165.066 51.6688 165.323C51.4021 165.572 51.2665 165.898 51.2621 166.302ZM53.4079 171.284C53.8559 171.226 54.2021 171.079 54.4467 170.844C54.6986 170.602 54.8267 170.287 54.831 169.898C54.8345 169.576 54.7162 169.327 54.4761 169.151C54.2361 168.967 53.8894 168.813 53.4361 168.689L53.4079 171.284ZM59.9173 167.083C60.394 167.083 60.8145 167.189 61.1788 167.402C61.5506 167.607 61.8371 167.9 62.0383 168.282C62.2395 168.656 62.3375 169.085 62.3323 169.568C62.327 170.052 62.2123 170.485 61.9881 170.866C61.7713 171.248 61.471 171.548 61.0873 171.768C60.7037 171.981 60.2698 172.087 59.7858 172.087C58.8398 172.087 58.1138 171.757 57.6076 171.097C57.1015 170.437 56.855 169.499 56.8683 168.282C56.8778 167.402 57.0034 166.646 57.2449 166.016C57.4938 165.385 57.8437 164.905 58.2946 164.575C58.7529 164.245 59.2973 164.08 59.928 164.08C60.3827 164.08 60.8217 164.164 61.2452 164.333C61.6761 164.501 62.0511 164.74 62.3705 165.048L62.0219 165.741C61.6586 165.433 61.3091 165.205 60.9733 165.059C60.6376 164.912 60.2937 164.839 59.9417 164.839C59.2671 164.839 58.7395 165.139 58.3589 165.741C57.9784 166.342 57.7822 167.185 57.7704 168.271L57.7686 168.436C57.9418 168.018 58.2204 167.688 58.6044 167.446C58.9883 167.204 59.426 167.083 59.9173 167.083ZM59.7501 171.328C60.2488 171.328 60.6538 171.171 60.9653 170.855C61.2768 170.533 61.4354 170.107 61.4411 169.579C61.4468 169.059 61.2937 168.641 60.9818 168.326C60.6773 168.003 60.2757 167.842 59.7771 167.842C59.2637 167.842 58.844 168.003 58.5178 168.326C58.1916 168.648 58.0257 169.066 58.0201 169.579C58.0145 170.1 58.1712 170.522 58.4904 170.844C58.8095 171.167 59.2294 171.328 59.7501 171.328ZM66.1286 172.087C65.2339 172.087 64.5556 171.75 64.0936 171.075C63.639 170.393 63.4188 169.396 63.4331 168.084C63.4474 166.771 63.6892 165.777 64.1586 165.103C64.6353 164.421 65.321 164.08 66.2157 164.08C67.1104 164.08 67.785 164.421 68.2396 165.103C68.7016 165.777 68.9255 166.767 68.9112 168.073C68.897 169.385 68.6514 170.382 68.1747 171.064C67.7053 171.746 67.0232 172.087 66.1286 172.087ZM66.1368 171.328C66.7601 171.328 67.2214 171.064 67.5204 170.536C67.8268 170.008 67.9861 169.187 67.9982 168.073C68.0103 166.965 67.8725 166.151 67.5848 165.631C67.2972 165.11 66.838 164.85 66.2073 164.85C65.584 164.85 65.1192 165.11 64.8128 165.631C64.5138 166.151 64.3583 166.965 64.3462 168.073C64.3342 169.18 64.4719 170.001 64.7594 170.536C65.0544 171.064 65.5135 171.328 66.1368 171.328ZM72.7243 172.087C71.8296 172.087 71.1513 171.75 70.6893 171.075C70.2347 170.393 70.0145 169.396 70.0288 168.084C70.0431 166.771 70.2849 165.777 70.7543 165.103C71.231 164.421 71.9167 164.08 72.8114 164.08C73.7061 164.08 74.3807 164.421 74.8353 165.103C75.2973 165.777 75.5212 166.767 75.5069 168.073C75.4927 169.385 75.2471 170.382 74.7704 171.064C74.301 171.746 73.6189 172.087 72.7243 172.087ZM72.7325 171.328C73.3558 171.328 73.8171 171.064 74.1161 170.536C74.4225 170.008 74.5818 169.187 74.5939 168.073C74.606 166.965 74.4682 166.151 74.1805 165.631C73.8929 165.11 73.4337 164.85 72.803 164.85C72.1797 164.85 71.7149 165.11 71.4085 165.631C71.1095 166.151 70.954 166.965 70.9419 168.073C70.9299 169.18 71.0676 170.001 71.3551 170.536C71.6501 171.064 72.1092 171.328 72.7325 171.328Z" fill="#999999"/>
<path d="M55.7442 132.876C55.7378 133.463 55.5235 133.954 55.1012 134.35C54.6789 134.746 54.1226 134.985 53.4324 135.065L53.4192 136.275L52.6492 136.275L52.6623 135.076C52.1566 135.047 51.6883 134.948 51.2575 134.779C50.834 134.611 50.4626 134.376 50.1432 134.075L50.4917 133.382C50.8404 133.683 51.19 133.907 51.5404 134.053C51.8981 134.2 52.2859 134.284 52.7036 134.306L52.7341 131.513C52.2295 131.381 51.813 131.241 51.4846 131.095C51.1562 130.948 50.8798 130.735 50.6555 130.457C50.4387 130.171 50.3327 129.797 50.3378 129.335C50.3421 128.931 50.4451 128.568 50.6466 128.246C50.8555 127.923 51.1406 127.663 51.5021 127.465C51.8637 127.259 52.2794 127.135 52.7492 127.091L52.7622 125.892L53.5322 125.892L53.5191 127.102C53.944 127.138 54.3462 127.241 54.7257 127.41C55.1125 127.578 55.4401 127.798 55.7085 128.07L55.36 128.763C54.8302 128.249 54.2028 127.952 53.4777 127.872L53.4455 130.831C53.9282 130.948 54.3265 131.076 54.6403 131.216C54.9614 131.355 55.2269 131.56 55.4366 131.832C55.6464 132.096 55.7489 132.444 55.7442 132.876ZM51.2621 129.302C51.258 129.676 51.3833 129.962 51.6378 130.16C51.8923 130.358 52.2608 130.523 52.7434 130.655L52.7737 127.872C52.3039 127.916 51.9356 128.066 51.6688 128.323C51.4021 128.572 51.2665 128.898 51.2621 129.302ZM53.4079 134.284C53.8559 134.226 54.2021 134.079 54.4467 133.844C54.6986 133.602 54.8267 133.287 54.831 132.898C54.8345 132.576 54.7162 132.327 54.4761 132.151C54.2361 131.967 53.8894 131.813 53.4361 131.689L53.4079 134.284ZM60.7656 130.974C61.2774 131.113 61.6708 131.355 61.9457 131.7C62.228 132.037 62.3666 132.444 62.3614 132.92C62.3542 133.588 62.0954 134.116 61.5852 134.504C61.075 134.886 60.391 135.076 59.533 135.076C58.675 135.076 57.995 134.886 57.4932 134.504C56.9914 134.116 56.7442 133.588 56.7514 132.92C56.7566 132.444 56.9041 132.033 57.1938 131.689C57.4909 131.344 57.8932 131.106 58.4006 130.974C57.9328 130.834 57.5759 130.607 57.33 130.292C57.0842 129.969 56.9637 129.591 56.9684 129.159C56.9729 128.741 57.0869 128.378 57.3102 128.07C57.5337 127.754 57.8443 127.512 58.2421 127.344C58.6474 127.168 59.1067 127.08 59.62 127.08C60.1333 127.08 60.587 127.168 60.9811 127.344C61.3826 127.512 61.6917 127.754 61.9082 128.07C62.1249 128.378 62.2309 128.741 62.2264 129.159C62.2217 129.591 62.0892 129.969 61.829 130.292C61.5763 130.607 61.2218 130.834 60.7656 130.974ZM57.8697 129.225C57.8651 129.643 58.0154 129.984 58.3205 130.248C58.6331 130.504 59.053 130.662 59.5804 130.721C60.109 130.662 60.5287 130.504 60.8395 130.248C61.1577 129.984 61.3191 129.643 61.3237 129.225C61.3284 128.792 61.1781 128.451 60.8728 128.202C60.5748 127.952 60.1545 127.828 59.6119 127.828C59.0692 127.828 58.6425 127.952 58.3318 128.202C58.0284 128.451 57.8744 128.792 57.8697 129.225ZM59.5411 134.328C60.1571 134.328 60.6315 134.204 60.9642 133.954C61.2969 133.705 61.4658 133.342 61.471 132.865C61.4757 132.433 61.3035 132.088 60.9543 131.832C60.6125 131.568 60.1522 131.406 59.5735 131.348C58.9936 131.406 58.5262 131.568 58.1713 131.832C57.8238 132.088 57.6477 132.433 57.643 132.865C57.6378 133.342 57.7989 133.705 58.1262 133.954C58.4535 134.204 58.9251 134.328 59.5411 134.328ZM66.1286 135.087C65.2339 135.087 64.5556 134.75 64.0936 134.075C63.639 133.393 63.4188 132.396 63.4331 131.084C63.4474 129.771 63.6892 128.777 64.1586 128.103C64.6353 127.421 65.321 127.08 66.2157 127.08C67.1104 127.08 67.785 127.421 68.2396 128.103C68.7016 128.777 68.9255 129.767 68.9112 131.073C68.897 132.385 68.6514 133.382 68.1747 134.064C67.7053 134.746 67.0232 135.087 66.1286 135.087ZM66.1368 134.328C66.7601 134.328 67.2214 134.064 67.5204 133.536C67.8268 133.008 67.9861 132.187 67.9982 131.073C68.0103 129.965 67.8725 129.151 67.5848 128.631C67.2972 128.11 66.838 127.85 66.2073 127.85C65.584 127.85 65.1192 128.11 64.8128 128.631C64.5138 129.151 64.3583 129.965 64.3462 131.073C64.3342 132.18 64.4719 133.001 64.7594 133.536C65.0544 134.064 65.5135 134.328 66.1368 134.328ZM72.7243 135.087C71.8296 135.087 71.1513 134.75 70.6893 134.075C70.2347 133.393 70.0145 132.396 70.0288 131.084C70.0431 129.771 70.2849 128.777 70.7543 128.103C71.231 127.421 71.9167 127.08 72.8114 127.08C73.7061 127.08 74.3807 127.421 74.8353 128.103C75.2973 128.777 75.5212 129.767 75.5069 131.073C75.4927 132.385 75.2471 133.382 74.7704 134.064C74.301 134.746 73.6189 135.087 72.7243 135.087ZM72.7325 134.328C73.3558 134.328 73.8171 134.064 74.1161 133.536C74.4225 133.008 74.5818 132.187 74.5939 131.073C74.606 129.965 74.4682 129.151 74.1805 128.631C73.8929 128.11 73.4337 127.85 72.803 127.85C72.1797 127.85 71.7149 128.11 71.4085 128.631C71.1095 129.151 70.954 129.965 70.9419 131.073C70.9299 132.18 71.0676 133.001 71.3551 133.536C71.6501 134.064 72.1092 134.328 72.7325 134.328Z" fill="#999999"/>
<g opacity="0.5">
<path d="M281.821 84.2552L281.78 87.999L280.714 87.999L280.755 84.2422L277.175 78.7436L278.423 78.7436L281.312 83.2933L284.299 78.7436L285.521 78.7436L281.821 84.2552ZM290.725 84.6972L285.928 84.6972C285.928 85.5292 286.111 86.1574 286.479 86.5821C286.856 87.0067 287.404 87.2191 288.124 87.2191C288.886 87.2191 289.591 86.9634 290.238 86.4521L290.581 87.2191C290.292 87.4877 289.921 87.7 289.469 87.856C289.025 88.012 288.569 88.09 288.101 88.09C287.078 88.09 286.28 87.791 285.706 87.1931C285.132 86.5864 284.85 85.7588 284.862 84.7102C284.869 84.0429 285.006 83.4536 285.271 82.9423C285.537 82.4223 285.905 82.0194 286.376 81.7334C286.847 81.4474 287.382 81.3044 287.98 81.3044C288.847 81.3044 289.524 81.5904 290.012 82.1624C290.499 82.7257 290.738 83.5056 290.727 84.5022L290.725 84.6972ZM287.984 82.1234C287.438 82.1234 286.99 82.288 286.64 82.6173C286.298 82.9466 286.076 83.4103 285.974 84.0082L289.783 84.0082C289.738 83.3929 289.561 82.925 289.253 82.6043C288.953 82.2837 288.53 82.1234 287.984 82.1234ZM298.117 81.4604L298.046 87.999L297.006 87.999L297.019 86.8161C296.824 87.2234 296.53 87.5397 296.138 87.765C295.754 87.9817 295.307 88.09 294.795 88.09C294.215 88.09 293.705 87.9513 293.266 87.674C292.836 87.3967 292.502 87.0067 292.265 86.5041C292.036 85.9928 291.926 85.3992 291.933 84.7232C291.94 84.0472 292.068 83.4536 292.316 82.9423C292.565 82.4223 292.907 82.0194 293.344 81.7334C293.789 81.4474 294.297 81.3044 294.869 81.3044C295.381 81.3044 295.826 81.4171 296.205 81.6424C296.583 81.8677 296.87 82.184 297.065 82.5913L297.077 81.4604L298.117 81.4604ZM295.013 87.2191C295.654 87.2191 296.151 87.0024 296.502 86.5691C296.853 86.1271 297.033 85.5032 297.042 84.6972C297.051 83.8913 296.884 83.2716 296.543 82.8383C296.201 82.405 295.709 82.1884 295.068 82.1884C294.426 82.1884 293.921 82.4137 293.552 82.8643C293.192 83.3063 293.008 83.9259 292.999 84.7232C292.99 85.5205 293.161 86.1358 293.512 86.5691C293.863 87.0024 294.363 87.2191 295.013 87.2191ZM303.197 81.3044C303.414 81.3044 303.613 81.3304 303.794 81.3824L303.758 82.3443C303.559 82.275 303.33 82.2403 303.07 82.2403C302.437 82.2403 301.963 82.4397 301.646 82.8383C301.339 83.2283 301.182 83.7049 301.176 84.2682L301.135 87.999L300.082 87.999L300.133 83.2933C300.141 82.6173 300.113 82.0064 300.049 81.4604L301.05 81.4604L301.141 82.6693C301.311 82.2273 301.579 81.8894 301.945 81.6554C302.312 81.4214 302.729 81.3044 303.197 81.3044ZM304.896 78.4316L305.949 78.4316L305.845 87.999L304.792 87.999L304.896 78.4316ZM313.707 81.4604L310.574 88.597C310.246 89.3423 309.837 89.8882 309.348 90.2349C308.858 90.5815 308.258 90.8198 307.546 90.9498L307.334 90.1309C307.951 89.9922 308.416 89.8059 308.731 89.5719C309.054 89.3466 309.322 88.9956 309.535 88.519L309.802 87.934L307.103 81.4604L308.208 81.4604L310.359 86.8551L312.654 81.4604L313.707 81.4604Z" fill="#5F2EEA"/>
</g>
<g opacity="0.5">
<path d="M185.761 78.7436L185.66 87.999L184.672 87.999L184.747 81.1224L181.669 87.999L180.915 87.999L177.961 81.1744L177.899 87.999L176.911 87.999L177.012 78.7436L177.896 78.7436L181.319 86.7251L184.877 78.7436L185.761 78.7436ZM190.517 88.09C189.901 88.09 189.361 87.9513 188.896 87.674C188.431 87.3967 188.072 87.0024 187.817 86.4911C187.571 85.9798 187.452 85.3818 187.46 84.6972C187.467 84.0126 187.599 83.4146 187.856 82.9033C188.122 82.392 188.49 81.9977 188.961 81.7204C189.432 81.4431 189.975 81.3044 190.591 81.3044C191.206 81.3044 191.746 81.4431 192.211 81.7204C192.676 81.9977 193.031 82.392 193.277 82.9033C193.532 83.4146 193.655 84.0126 193.648 84.6972C193.64 85.3818 193.504 85.9798 193.238 86.4911C192.981 87.0024 192.617 87.3967 192.146 87.674C191.675 87.9513 191.132 88.09 190.517 88.09ZM190.526 87.2191C191.176 87.2191 191.677 87.0067 192.028 86.5821C192.38 86.1488 192.56 85.5205 192.569 84.6972C192.577 83.8999 192.406 83.2846 192.056 82.8513C191.705 82.4093 191.214 82.1884 190.581 82.1884C189.94 82.1884 189.439 82.4093 189.079 82.8513C188.719 83.2846 188.534 83.8999 188.526 84.6972C188.517 85.5205 188.683 86.1488 189.025 86.5821C189.376 87.0067 189.876 87.2191 190.526 87.2191ZM198.589 81.3044C200.158 81.3044 200.933 82.1667 200.914 83.8913L200.869 87.999L199.816 87.999L199.86 83.9432C199.867 83.3366 199.75 82.8946 199.511 82.6173C199.271 82.3313 198.891 82.1884 198.371 82.1884C197.765 82.1884 197.277 82.3747 196.909 82.7473C196.541 83.12 196.354 83.6226 196.347 84.2552L196.306 87.999L195.253 87.999L195.304 83.2933C195.312 82.6173 195.284 82.0064 195.22 81.4604L196.221 81.4604L196.313 82.6303C196.517 82.2057 196.819 81.8807 197.22 81.6554C197.621 81.4214 198.078 81.3044 198.589 81.3044ZM204.324 82.2923L204.285 85.8671C204.28 86.3524 204.376 86.6948 204.573 86.8941C204.77 87.0847 205.051 87.1801 205.415 87.1801C205.657 87.1801 205.892 87.1411 206.118 87.0631L206.108 87.96C205.838 88.0467 205.535 88.09 205.197 88.09C204.573 88.09 204.085 87.9167 203.733 87.57C203.391 87.2147 203.223 86.6948 203.23 86.0101L203.271 82.2923L201.997 82.2923L202.006 81.4604L203.28 81.4604L203.298 79.7835L204.355 79.4065L204.333 81.4604L206.205 81.4604L206.196 82.2923L204.324 82.2923ZM210.738 81.3044C212.307 81.3044 213.082 82.1667 213.063 83.8913L213.019 87.999L211.966 87.999L212.01 83.9432C212.016 83.3366 211.9 82.8946 211.66 82.6173C211.421 82.3313 211.041 82.1884 210.521 82.1884C209.914 82.1884 209.427 82.3747 209.059 82.7473C208.691 83.12 208.503 83.6226 208.496 84.2552L208.456 87.999L207.403 87.999L207.507 78.4316L208.56 78.4316L208.515 82.5263C208.727 82.1277 209.025 81.8244 209.409 81.6164C209.801 81.4084 210.244 81.3044 210.738 81.3044ZM215.111 78.4316L216.164 78.4316L216.06 87.999L215.007 87.999L215.111 78.4316ZM223.922 81.4604L220.789 88.597C220.46 89.3423 220.051 89.8882 219.562 90.2349C219.073 90.5815 218.473 90.8198 217.761 90.9498L217.549 90.1309C218.165 89.9922 218.631 89.8059 218.946 89.5719C219.269 89.3466 219.537 88.9956 219.75 88.519L220.016 87.934L217.318 81.4604L218.423 81.4604L220.574 86.8551L222.869 81.4604L223.922 81.4604Z" fill="#5F2EEA"/>
</g>
<path d="M56.0547 102.998L152.385 102.998L152.33 107.998L56.0003 107.998L56.0547 102.998Z" fill="#5F2EEA"/>
<path d="M96.0526 78.7436L92.7149 87.999L91.8049 87.999L89.2484 80.4205L86.5139 87.999L85.6169 87.999L82.4676 78.7436L83.5596 78.7436L86.1014 86.4781L88.8766 78.7436L89.6955 78.7566L92.2632 86.5041L94.9996 78.7436L96.0526 78.7436ZM102.184 84.6972L97.3875 84.6972C97.3871 85.5292 97.5709 86.1574 97.9389 86.5821C98.3157 87.0067 98.8637 87.2191 99.583 87.2191C100.346 87.2191 101.05 86.9634 101.697 86.4521L102.04 87.2191C101.751 87.4877 101.38 87.7 100.928 87.856C100.484 88.012 100.029 88.09 99.5605 88.09C98.5379 88.09 97.7394 87.791 97.1653 87.1931C96.5912 86.5864 96.3099 85.7588 96.3213 84.7102C96.3286 84.0429 96.465 83.4536 96.7306 82.9423C96.9962 82.4223 97.3646 82.0194 97.8357 81.7334C98.3068 81.4474 98.8414 81.3044 99.4394 81.3044C100.306 81.3044 100.983 81.5904 101.471 82.1624C101.959 82.7257 102.197 83.5056 102.187 84.5022L102.184 84.6972ZM99.4435 82.1234C98.8975 82.1234 98.4493 82.288 98.0991 82.6173C97.7575 82.9466 97.5358 83.4103 97.434 84.0082L101.243 84.0082C101.198 83.3929 101.021 82.925 100.712 82.6043C100.412 82.2837 99.9895 82.1234 99.4435 82.1234ZM109.256 84.6972L104.459 84.6972C104.458 85.5292 104.642 86.1574 105.01 86.5821C105.387 87.0067 105.935 87.2191 106.654 87.2191C107.417 87.2191 108.122 86.9634 108.769 86.4521L109.111 87.2191C108.822 87.4877 108.452 87.7 107.999 87.856C107.556 88.012 107.1 88.09 106.632 88.09C105.609 88.09 104.811 87.791 104.237 87.1931C103.663 86.5864 103.381 85.7588 103.393 84.7102C103.4 84.0429 103.536 83.4536 103.802 82.9423C104.068 82.4223 104.436 82.0194 104.907 81.7334C105.378 81.4474 105.913 81.3044 106.511 81.3044C107.377 81.3044 108.055 81.5904 108.542 82.1624C109.03 82.7257 109.269 83.5056 109.258 84.5022L109.256 84.6972ZM106.515 82.1234C105.969 82.1234 105.521 82.288 105.17 82.6173C104.829 82.9466 104.607 83.4103 104.505 84.0082L108.314 84.0082C108.269 83.3929 108.092 82.925 107.784 82.6043C107.484 82.2837 107.061 82.1234 106.515 82.1234ZM115.225 87.999L111.905 84.8532L111.871 87.999L110.818 87.999L110.922 78.4316L111.975 78.4316L111.91 84.4632L115.023 81.4734L116.362 81.4734L113.052 84.6062L116.603 87.999L115.225 87.999ZM117.613 78.4316L118.666 78.4316L118.562 87.999L117.509 87.999L117.613 78.4316ZM126.423 81.4604L123.291 88.597C122.962 89.3423 122.553 89.8882 122.064 90.2349C121.575 90.5815 120.974 90.8198 120.262 90.9498L120.05 90.1309C120.667 89.9922 121.133 89.8059 121.447 89.5719C121.77 89.3466 122.038 88.9956 122.252 88.519L122.518 87.934L119.819 81.4604L120.924 81.4604L123.076 86.8551L125.37 81.4604L126.423 81.4604Z" fill="#5F2EEA"/>
<path d="M64.3364 53.3592L58.9364 53.3592L57.7677 55.9991L56.1927 55.9991L61.0639 45.3197L62.3689 45.3197L67.0227 55.9991L65.4477 55.9991L64.3364 53.3592ZM63.8248 52.1293L61.7051 47.0446L59.4748 52.1293L63.8248 52.1293ZM74.8421 48.4545L71.475 55.9991L70.11 55.9991L66.9371 48.4545L68.5421 48.4545L70.8486 54.2892L73.3271 48.4545L74.8421 48.4545ZM82.3202 52.2493L76.9202 52.2493C76.951 54.0192 77.7463 54.9041 79.3063 54.9041C80.1763 54.9041 80.9744 54.6191 81.7006 54.0492L82.1539 55.1291C81.8106 55.4291 81.373 55.6691 80.8411 55.8491C80.3192 56.0191 79.7933 56.104 79.2633 56.104C78.0533 56.104 77.107 55.7591 76.4245 55.0691C75.7422 54.3691 75.4076 53.4142 75.4207 52.2043C75.4291 51.4343 75.5866 50.7494 75.8931 50.1494C76.2096 49.5494 76.6447 49.0845 77.1983 48.7545C77.7519 48.4245 78.3787 48.2595 79.0787 48.2595C80.0987 48.2595 80.8951 48.5895 81.4679 49.2495C82.0507 49.9094 82.3357 50.8244 82.323 51.9943L82.3202 52.2493ZM79.0964 49.3844C78.5264 49.3844 78.0596 49.5544 77.6959 49.8944C77.3322 50.2344 77.0969 50.7194 76.99 51.3493L80.995 51.3493C80.942 50.7094 80.7523 50.2244 80.4259 49.8944C80.0996 49.5544 79.6564 49.3844 79.0964 49.3844ZM88.1221 48.2595C89.9321 48.2595 90.8261 49.2695 90.8042 51.2893L90.7529 55.9991L89.2379 55.9991L89.2882 51.3793C89.2954 50.7194 89.1706 50.2394 88.9139 49.9394C88.6671 49.6394 88.2638 49.4894 87.7038 49.4894C87.0638 49.4894 86.5466 49.6894 86.1522 50.0894C85.7679 50.4894 85.572 51.0243 85.5648 51.6943L85.5179 55.9991L84.0179 55.9991L84.077 50.5694C84.0856 49.7794 84.0533 49.0695 83.9802 48.4395L85.3902 48.4395L85.511 49.7444C85.7562 49.2645 86.1052 48.8995 86.5579 48.6495C87.0207 48.3895 87.5421 48.2595 88.1221 48.2595ZM99.9668 48.4395L99.886 55.8641C99.8735 57.014 99.559 57.8789 98.9427 58.4589C98.3363 59.0489 97.4381 59.3439 96.2481 59.3439C95.0981 59.3439 94.0958 59.0939 93.2413 58.5939L93.5092 57.409C93.9764 57.659 94.4244 57.8439 94.8531 57.9639C95.2918 58.0839 95.7562 58.1439 96.2462 58.1439C97.6562 58.1439 98.369 57.424 98.3847 55.9841L98.4025 54.3492C98.1677 54.7891 97.8289 55.1391 97.386 55.3991C96.9433 55.6491 96.432 55.7741 95.852 55.7741C95.192 55.7741 94.6036 55.6191 94.087 55.3091C93.5804 54.9991 93.1852 54.5591 92.9014 53.9892C92.6276 53.4192 92.4947 52.7642 92.5028 52.0243C92.5108 51.2843 92.6579 50.6294 92.9441 50.0594C93.2404 49.4894 93.6451 49.0495 94.1585 48.7395C94.682 48.4195 95.2737 48.2595 95.9337 48.2595C96.5137 48.2595 97.0224 48.3845 97.4597 48.6345C97.897 48.8745 98.2283 49.2195 98.4534 49.6694L98.4668 48.4395L99.9668 48.4395ZM96.2102 54.5591C96.8902 54.5591 97.4276 54.3342 97.8225 53.8842C98.2174 53.4342 98.4192 52.8142 98.4278 52.0243C98.4364 51.2343 98.2481 50.6144 97.863 50.1644C97.488 49.7044 96.9555 49.4744 96.2655 49.4744C95.5855 49.4744 95.043 49.7044 94.638 50.1644C94.2431 50.6144 94.0414 51.2343 94.0328 52.0243C94.0243 52.8042 94.2125 53.4242 94.5975 53.8842C94.9926 54.3342 95.5302 54.5591 96.2102 54.5591ZM108.6 52.2493L103.2 52.2493C103.23 54.0192 104.026 54.9041 105.586 54.9041C106.456 54.9041 107.254 54.6191 107.98 54.0492L108.433 55.1291C108.09 55.4291 107.652 55.6691 107.12 55.8491C106.599 56.0191 106.073 56.104 105.543 56.104C104.333 56.104 103.386 55.7591 102.704 55.0691C102.021 54.3691 101.687 53.4142 101.7 52.2043C101.708 51.4343 101.866 50.7494 102.172 50.1494C102.489 49.5494 102.924 49.0845 103.478 48.7545C104.031 48.4245 104.658 48.2595 105.358 48.2595C106.378 48.2595 107.174 48.5895 107.747 49.2495C108.33 49.9094 108.615 50.8244 108.602 51.9943L108.6 52.2493ZM105.376 49.3844C104.806 49.3844 104.339 49.5544 103.975 49.8944C103.611 50.2344 103.376 50.7194 103.269 51.3493L107.274 51.3493C107.221 50.7094 107.032 50.2244 106.705 49.8944C106.379 49.5544 105.936 49.3844 105.376 49.3844ZM114.146 48.2595C114.376 48.2595 114.616 48.2945 114.865 48.3645L114.82 49.7444C114.551 49.6444 114.257 49.5944 113.937 49.5944C113.247 49.5944 112.725 49.8044 112.37 50.2244C112.026 50.6344 111.85 51.1543 111.843 51.7843L111.797 55.9991L110.297 55.9991L110.356 50.5694C110.365 49.7794 110.333 49.0695 110.259 48.4395L111.669 48.4395L111.79 49.8044C111.995 49.3044 112.309 48.9245 112.732 48.6645C113.155 48.3945 113.626 48.2595 114.146 48.2595ZM118.502 56.104C117.182 56.104 116.146 55.7841 115.393 55.1441L115.855 54.0492C116.638 54.6491 117.54 54.9491 118.56 54.9491C119.08 54.9491 119.476 54.8641 119.748 54.6941C120.02 54.5141 120.157 54.2642 120.161 53.9442C120.164 53.6742 120.071 53.4642 119.883 53.3142C119.705 53.1542 119.396 53.0192 118.957 52.9092L117.7 52.6093C117.042 52.4693 116.54 52.2243 116.193 51.8743C115.857 51.5143 115.692 51.0693 115.698 50.5394C115.705 49.8594 115.981 49.3094 116.526 48.8895C117.081 48.4695 117.808 48.2595 118.708 48.2595C119.248 48.2595 119.757 48.3445 120.235 48.5145C120.723 48.6845 121.136 48.9245 121.472 49.2345L120.996 50.2994C120.272 49.7194 119.505 49.4294 118.695 49.4294C118.205 49.4294 117.824 49.5244 117.552 49.7144C117.28 49.8944 117.142 50.1494 117.139 50.4794C117.136 50.7394 117.219 50.9494 117.387 51.1093C117.555 51.2693 117.824 51.3943 118.193 51.4843L119.479 51.7993C120.198 51.9593 120.725 52.2143 121.061 52.5643C121.407 52.9042 121.577 53.3492 121.571 53.8992C121.564 54.5791 121.283 55.1191 120.729 55.5191C120.185 55.9091 119.442 56.104 118.502 56.104ZM125.005 48.6045L124.985 50.4044L123.185 50.4044L123.205 48.6045L125.005 48.6045ZM124.944 54.1992L124.924 55.9991L123.124 55.9991L123.144 54.1992L124.944 54.1992ZM131.188 45.3197L138.118 45.3197L138.104 46.5796L132.704 46.5796L132.668 49.9394L137.768 49.9394L137.754 51.1993L132.654 51.1993L132.616 54.7391L138.016 54.7391L138.002 55.9991L131.072 55.9991L131.188 45.3197ZM143.903 48.2595C145.713 48.2595 146.607 49.2695 146.585 51.2893L146.534 55.9991L145.019 55.9991L145.069 51.3793C145.077 50.7194 144.952 50.2394 144.695 49.9394C144.448 49.6394 144.045 49.4894 143.485 49.4894C142.845 49.4894 142.328 49.6894 141.933 50.0894C141.549 50.4894 141.353 51.0243 141.346 51.6943L141.299 55.9991L139.799 55.9991L139.858 50.5694C139.867 49.7794 139.835 49.0695 139.761 48.4395L141.171 48.4395L141.292 49.7444C141.537 49.2645 141.886 48.8995 142.339 48.6495C142.802 48.3895 143.323 48.2595 143.903 48.2595ZM155.726 44.9597L155.606 55.9991L154.106 55.9991L154.12 54.7091C153.895 55.1591 153.561 55.5041 153.119 55.7441C152.686 55.9841 152.18 56.104 151.6 56.104C150.95 56.104 150.371 55.9391 149.865 55.6091C149.359 55.2791 148.964 54.8191 148.68 54.2292C148.407 53.6292 148.274 52.9392 148.283 52.1593C148.291 51.3793 148.438 50.6944 148.725 50.1044C149.011 49.5144 149.406 49.0595 149.91 48.7395C150.423 48.4195 151.015 48.2595 151.685 48.2595C152.255 48.2595 152.754 48.3795 153.181 48.6195C153.618 48.8595 153.945 49.1995 154.16 49.6394L154.211 44.9597L155.726 44.9597ZM151.958 54.9041C152.648 54.9041 153.18 54.6691 153.555 54.1992C153.941 53.7192 154.138 53.0492 154.147 52.1893C154.157 51.3293 153.974 50.6644 153.599 50.1944C153.234 49.7144 152.712 49.4744 152.032 49.4744C151.342 49.4744 150.799 49.7094 150.404 50.1794C150.019 50.6494 149.822 51.3093 149.813 52.1593C149.803 53.0192 149.986 53.6942 150.361 54.1842C150.745 54.6641 151.278 54.9041 151.958 54.9041ZM170.682 50.3294L170.627 55.3691C170.175 55.5991 169.603 55.7841 168.911 55.9241C168.23 56.0541 167.534 56.119 166.824 56.119C165.744 56.119 164.811 55.9041 164.026 55.4741C163.241 55.0341 162.643 54.4041 162.232 53.5842C161.831 52.7642 161.636 51.7843 161.649 50.6444C161.661 49.5244 161.876 48.5545 162.295 47.7345C162.724 46.9146 163.326 46.2896 164.101 45.8597C164.886 45.4197 165.803 45.1997 166.853 45.1997C167.603 45.1997 168.292 45.3147 168.919 45.5447C169.557 45.7647 170.098 46.0846 170.544 46.5046L169.976 47.6595C169.471 47.2396 168.974 46.9396 168.486 46.7596C167.998 46.5796 167.454 46.4896 166.854 46.4896C165.694 46.4896 164.805 46.8446 164.187 47.5546C163.58 48.2645 163.268 49.2945 163.254 50.6444C163.239 52.0343 163.537 53.0892 164.149 53.8092C164.762 54.5191 165.673 54.8741 166.883 54.8741C167.693 54.8741 168.474 54.7541 169.227 54.5141L169.259 51.5143L166.769 51.5143L166.782 50.3294L170.682 50.3294ZM179.858 48.4395L179.776 55.9991L178.276 55.9991L178.29 54.7091C178.065 55.1591 177.731 55.5041 177.288 55.7441C176.856 55.9841 176.35 56.104 175.77 56.104C175.1 56.104 174.511 55.9441 174.005 55.6241C173.508 55.3041 173.123 54.8541 172.849 54.2742C172.576 53.6842 172.443 52.9992 172.452 52.2193C172.46 51.4393 172.608 50.7494 172.894 50.1494C173.191 49.5494 173.596 49.0845 174.11 48.7545C174.623 48.4245 175.205 48.2595 175.855 48.2595C176.435 48.2595 176.939 48.3845 177.366 48.6345C177.793 48.8745 178.119 49.2195 178.345 49.6694L178.358 48.4395L179.858 48.4395ZM176.143 54.9041C176.823 54.9041 177.35 54.6691 177.725 54.1992C178.11 53.7192 178.308 53.0492 178.317 52.1893C178.327 51.3193 178.144 50.6494 177.769 50.1794C177.404 49.7094 176.877 49.4744 176.187 49.4744C175.507 49.4744 174.969 49.7194 174.574 50.2094C174.188 50.6894 173.991 51.3593 173.982 52.2193C173.973 53.0692 174.155 53.7292 174.53 54.1992C174.915 54.6691 175.453 54.9041 176.143 54.9041ZM190.711 48.2595C192.391 48.2595 193.22 49.2695 193.198 51.2893L193.146 55.9991L191.631 55.9991L191.682 51.3643C191.689 50.7144 191.579 50.2394 191.352 49.9394C191.136 49.6394 190.777 49.4894 190.277 49.4894C189.697 49.4894 189.235 49.6894 188.891 50.0894C188.556 50.4894 188.385 51.0343 188.378 51.7243L188.331 55.9991L186.816 55.9991L186.867 51.3643C186.874 50.7144 186.764 50.2394 186.537 49.9394C186.321 49.6394 185.962 49.4894 185.462 49.4894C184.882 49.4894 184.42 49.6894 184.076 50.0894C183.731 50.4894 183.555 51.0343 183.548 51.7243L183.501 55.9991L182.001 55.9991L182.06 50.5694C182.069 49.7794 182.037 49.0695 181.964 48.4395L183.374 48.4395L183.495 49.6994C183.72 49.2395 184.039 48.8845 184.451 48.6345C184.864 48.3845 185.346 48.2595 185.896 48.2595C187.066 48.2595 187.825 48.7445 188.175 49.7144C188.41 49.2645 188.748 48.9095 189.191 48.6495C189.644 48.3895 190.151 48.2595 190.711 48.2595ZM201.808 52.2493L196.408 52.2493C196.438 54.0192 197.234 54.9041 198.794 54.9041C199.664 54.9041 200.462 54.6191 201.188 54.0492L201.641 55.1291C201.298 55.4291 200.86 55.6691 200.328 55.8491C199.807 56.0191 199.281 56.104 198.751 56.104C197.541 56.104 196.594 55.7591 195.912 55.0691C195.229 54.3692 194.895 53.4142 194.908 52.2043C194.916 51.4343 195.074 50.7494 195.38 50.1494C195.697 49.5494 196.132 49.0845 196.686 48.7545C197.239 48.4245 197.866 48.2595 198.566 48.2595C199.586 48.2595 200.382 48.5895 200.955 49.2495C201.538 49.9094 201.823 50.8244 201.81 51.9943L201.808 52.2493ZM198.584 49.3844C198.014 49.3844 197.547 49.5544 197.183 49.8944C196.819 50.2344 196.584 50.7194 196.477 51.3493L200.482 51.3493C200.429 50.7094 200.24 50.2244 199.913 49.8944C199.587 49.5544 199.144 49.3844 198.584 49.3844Z" fill="#151522"/>
<defs>
<filter id="filter0_d_436_1962" x="0" y="0" width="397" height="383" filterUnits="userSpaceOnUse" color-interpolation-filters="sRGB">
<feFlood flood-opacity="0" result="BackgroundImageFix"/>
<feColorMatrix in="SourceAlpha" type="matrix" values="0 0 0 0 0 0 0 0 0 0 0 0 0 0 0 0 0 0 127 0" result="hardAlpha"/>
<feOffset dy="8"/>
<feGaussianBlur stdDeviation="8"/>
<feColorMatrix type="matrix" values="0 0 0 0 0.0666667 0 0 0 0 0.0666667 0 0 0 0 0.0666667 0 0 0 0.08 0"/>
<feBlend mode="normal" in2="BackgroundImageFix" result="effect1_dropShadow_436_1962"/>
<feBlend mode="normal" in="SourceGraphic" in2="effect1_dropShadow_436_1962" result="shape"/>
</filter>
<filter id="filter1_dd_436_1962" x="155.323" y="159.778" width="21.7227" height="21.979" filterUnits="userSpaceOnUse" color-interpolation-filters="sRGB">
<feFlood flood-opacity="0" result="BackgroundImageFix"/>
<feColorMatrix in="SourceAlpha" type="matrix" values="0 0 0 0 0 0 0 0 0 0 0 0 0 0 0 0 0 0 127 0" result="hardAlpha"/>
<feOffset dy="2"/>
<feGaussianBlur stdDeviation="2"/>
<feColorMatrix type="matrix" values="0 0 0 0 0.196487 0 0 0 0 0.196487 0 0 0 0 0.279476 0 0 0 0.06 0"/>
<feBlend mode="multiply" in2="BackgroundImageFix" result="effect1_dropShadow_436_1962"/>
<feColorMatrix in="SourceAlpha" type="matrix" values="0 0 0 0 0 0 0 0 0 0 0 0 0 0 0 0 0 0 127 0" result="hardAlpha"/>
<feOffset dy="2"/>
<feGaussianBlur stdDeviation="1"/>
<feColorMatrix type="matrix" values="0 0 0 0 0.196487 0 0 0 0 0.196487 0 0 0 0 0.279476 0 0 0 0.06 0"/>
<feBlend mode="multiply" in2="effect1_dropShadow_436_1962" result="effect2_dropShadow_436_1962"/>
<feBlend mode="normal" in="SourceGraphic" in2="effect2_dropShadow_436_1962" result="shape"/>
</filter>
</defs>
</svg>
