<svg width="119" height="12" viewBox="0 0 119 12" fill="none" xmlns="http://www.w3.org/2000/svg">
<path d="M3.542 2.45499H0.168V1.25099H8.372V2.45499H4.998V11.219H3.542V2.45499ZM10.0809 4.16299H11.4809V11.219H10.0809V4.16299ZM11.5929 1.08299V2.56699H9.95492V1.08299H11.5929ZM17.1196 11.317C16.4102 11.317 15.7896 11.1677 15.2576 10.869C14.7349 10.5703 14.3336 10.1503 14.0536 9.60899C13.7736 9.05833 13.6336 8.41899 13.6336 7.69099C13.6336 6.96299 13.7782 6.31899 14.0676 5.75899C14.3662 5.19899 14.7816 4.76499 15.3136 4.45699C15.8456 4.14899 16.4662 3.99499 17.1756 3.99499C17.6702 3.99499 18.1462 4.07899 18.6036 4.24699C19.0609 4.40566 19.4296 4.62499 19.7096 4.90499L19.2756 5.92699C18.6129 5.40433 17.9456 5.14299 17.2736 5.14299C16.5922 5.14299 16.0602 5.36699 15.6776 5.81499C15.2949 6.25366 15.1036 6.87433 15.1036 7.67699C15.1036 8.47966 15.2949 9.10033 15.6776 9.53899C16.0602 9.96833 16.5922 10.183 17.2736 10.183C17.9642 10.183 18.6316 9.92166 19.2756 9.39899L19.7096 10.421C19.4109 10.701 19.0282 10.9203 18.5616 11.079C18.1042 11.2377 17.6236 11.317 17.1196 11.317ZM26.3139 11.219L22.9399 7.88699V11.219H21.5399V0.914993H22.9399V7.35499L26.0759 4.17699H27.8259L24.4519 7.56499L28.1199 11.219H26.3139ZM29.4774 4.16299H30.8774V11.219H29.4774V4.16299ZM30.9894 1.08299V2.56699H29.3514V1.08299H30.9894ZM35.2841 5.25499V8.79699C35.2841 9.28233 35.3867 9.62766 35.5921 9.83299C35.8067 10.029 36.1007 10.127 36.4741 10.127C36.7167 10.127 36.9641 10.0897 37.2161 10.015V11.163C36.9081 11.2657 36.5581 11.317 36.1661 11.317C35.4381 11.317 34.8734 11.1117 34.4721 10.701C34.0707 10.2903 33.8701 9.69299 33.8701 8.90899V5.25499H32.4981V4.16299H33.8701V2.39899L35.2841 1.90899V4.16299H37.2301V5.25499H35.2841ZM44.7613 10.127V11.219H38.7273V10.239L42.8993 5.25499H38.8393V4.16299H44.6073V5.15699L40.4353 10.127H44.7613ZM55.6182 11.331C54.6569 11.331 53.8169 11.1257 53.0982 10.715C52.3889 10.295 51.8429 9.70233 51.4602 8.93699C51.0776 8.17166 50.8862 7.26633 50.8862 6.22099C50.8862 5.18499 51.0776 4.28433 51.4602 3.51899C51.8429 2.75366 52.3889 2.16566 53.0982 1.75499C53.8169 1.34433 54.6569 1.13899 55.6182 1.13899C56.2996 1.13899 56.9296 1.24633 57.5082 1.46099C58.0962 1.66633 58.5909 1.96966 58.9922 2.37099L58.4882 3.43499C58.0216 3.05233 57.5596 2.77699 57.1022 2.60899C56.6542 2.43166 56.1642 2.34299 55.6322 2.34299C54.5962 2.34299 53.7936 2.67899 53.2242 3.35099C52.6642 4.02299 52.3842 4.97966 52.3842 6.22099C52.3842 7.47166 52.6642 8.43766 53.2242 9.11899C53.7936 9.79099 54.5962 10.127 55.6322 10.127C56.1642 10.127 56.6542 10.043 57.1022 9.87499C57.5596 9.69766 58.0216 9.41766 58.4882 9.03499L58.9922 10.099C58.5909 10.5003 58.0962 10.8083 57.5082 11.023C56.9296 11.2283 56.2996 11.331 55.6182 11.331ZM61.1805 4.16299H62.5805V11.219H61.1805V4.16299ZM62.6925 1.08299V2.56699H61.0545V1.08299H62.6925ZM68.9052 3.99499C70.5945 3.99499 71.4392 4.93766 71.4392 6.82299V11.219H70.0252V6.90699C70.0252 6.29099 69.9039 5.84299 69.6612 5.56299C69.4279 5.28299 69.0499 5.14299 68.5272 5.14299C67.9299 5.14299 67.4492 5.32966 67.0852 5.70299C66.7305 6.07633 66.5532 6.57566 66.5532 7.20099V11.219H65.1532V6.15099C65.1532 5.41366 65.1159 4.75099 65.0412 4.16299H66.3572L66.4832 5.38099C66.7072 4.93299 67.0292 4.59233 67.4492 4.35899C67.8785 4.11633 68.3639 3.99499 68.9052 3.99499ZM79.972 7.71899H74.932C74.9787 9.37099 75.73 10.197 77.186 10.197C77.998 10.197 78.74 9.93099 79.412 9.39899L79.846 10.407C79.5287 10.687 79.1227 10.911 78.628 11.079C78.1427 11.2377 77.6527 11.317 77.158 11.317C76.0287 11.317 75.142 10.995 74.498 10.351C73.854 9.69766 73.532 8.80633 73.532 7.67699C73.532 6.95833 73.672 6.31899 73.952 5.75899C74.2413 5.19899 74.6427 4.76499 75.156 4.45699C75.6693 4.14899 76.2527 3.99499 76.906 3.99499C77.858 3.99499 78.6047 4.30299 79.146 4.91899C79.6967 5.53499 79.972 6.38899 79.972 7.48099V7.71899ZM76.934 5.04499C76.402 5.04499 75.968 5.20366 75.632 5.52099C75.296 5.83833 75.0813 6.29099 74.988 6.87899H78.726C78.67 6.28166 78.488 5.82899 78.18 5.52099C77.872 5.20366 77.4567 5.04499 76.934 5.04499ZM90.1446 3.99499C91.7126 3.99499 92.4966 4.93766 92.4966 6.82299V11.219H91.0826V6.89299C91.0826 6.28633 90.9753 5.84299 90.7606 5.56299C90.5553 5.28299 90.2193 5.14299 89.7526 5.14299C89.2113 5.14299 88.7819 5.32966 88.4646 5.70299C88.1566 6.07633 88.0026 6.58499 88.0026 7.22899V11.219H86.5886V6.89299C86.5886 6.28633 86.4813 5.84299 86.2666 5.56299C86.0613 5.28299 85.7253 5.14299 85.2586 5.14299C84.7173 5.14299 84.2879 5.32966 83.9706 5.70299C83.6533 6.07633 83.4946 6.58499 83.4946 7.22899V11.219H82.0946V6.15099C82.0946 5.41366 82.0573 4.75099 81.9826 4.16299H83.2986L83.4246 5.33899C83.6299 4.90966 83.9239 4.57833 84.3066 4.34499C84.6893 4.11166 85.1373 3.99499 85.6506 3.99499C86.7426 3.99499 87.4566 4.44766 87.7926 5.35299C88.0073 4.93299 88.3199 4.60166 88.7306 4.35899C89.1506 4.11633 89.6219 3.99499 90.1446 3.99499ZM101.476 4.16299V11.219H100.076V10.015C99.871 10.435 99.563 10.757 99.1523 10.981C98.751 11.205 98.2797 11.317 97.7383 11.317C97.113 11.317 96.5623 11.1677 96.0863 10.869C95.6197 10.5703 95.2557 10.1503 94.9943 9.60899C94.733 9.05833 94.6023 8.41899 94.6023 7.69099C94.6023 6.96299 94.733 6.31899 94.9943 5.75899C95.265 5.19899 95.6383 4.76499 96.1143 4.45699C96.5903 4.14899 97.1317 3.99499 97.7383 3.99499C98.2797 3.99499 98.751 4.11166 99.1523 4.34499C99.5537 4.56899 99.8617 4.89099 100.076 5.31099V4.16299H101.476ZM98.0743 10.197C98.709 10.197 99.199 9.97766 99.5443 9.53899C99.899 9.09099 100.076 8.46566 100.076 7.66299C100.076 6.85099 99.899 6.22566 99.5443 5.78699C99.199 5.34833 98.7043 5.12899 98.0603 5.12899C97.4257 5.12899 96.9263 5.35766 96.5623 5.81499C96.2077 6.26299 96.0303 6.88833 96.0303 7.69099C96.0303 8.48433 96.2077 9.10033 96.5623 9.53899C96.9263 9.97766 97.4303 10.197 98.0743 10.197ZM108.286 4.16299H109.686V11.219H108.286V4.16299ZM109.798 1.08299V2.56699H108.16V1.08299H109.798ZM118.713 0.914993V11.219H117.313V10.015C117.107 10.435 116.799 10.757 116.389 10.981C115.987 11.205 115.516 11.317 114.975 11.317C114.368 11.317 113.827 11.163 113.351 10.855C112.875 10.547 112.501 10.1177 112.231 9.56699C111.969 9.00699 111.839 8.36299 111.839 7.63499C111.839 6.90699 111.969 6.26766 112.231 5.71699C112.492 5.16633 112.856 4.74166 113.323 4.44299C113.799 4.14433 114.349 3.99499 114.975 3.99499C115.507 3.99499 115.973 4.10699 116.375 4.33099C116.785 4.55499 117.093 4.87233 117.299 5.28299V0.914993H118.713ZM115.297 10.197C115.941 10.197 116.435 9.97766 116.781 9.53899C117.135 9.09099 117.313 8.46566 117.313 7.66299C117.313 6.86033 117.135 6.23966 116.781 5.80099C116.435 5.35299 115.945 5.12899 115.311 5.12899C114.667 5.12899 114.163 5.34833 113.799 5.78699C113.444 6.22566 113.267 6.84166 113.267 7.63499C113.267 8.43766 113.444 9.06766 113.799 9.52499C114.163 9.97299 114.662 10.197 115.297 10.197Z" fill="#6E7191"/>
</svg>
