<svg width="122" height="22" viewBox="0 0 122 22" fill="none" xmlns="http://www.w3.org/2000/svg">
<path d="M8.16994 0.801054C8.74517 0.801054 9.26276 0.911548 9.72292 1.13253C10.1995 1.3351 10.635 1.56529 11.0294 1.82309C11.4402 2.08091 11.8264 2.3203 12.1879 2.54129C12.5494 2.74386 12.9192 2.84514 13.2971 2.84514C13.5929 2.82673 13.9298 2.78068 14.3077 2.70702C14.6364 2.63336 15.0144 2.52288 15.4416 2.37555C15.8853 2.20982 16.3784 1.97042 16.9206 1.65736C16.3784 2.24665 15.9347 2.74386 15.5896 3.14899C15.2609 3.53571 15.0062 3.85798 14.8254 4.11578C14.6118 4.41043 14.4557 4.64062 14.3571 4.80636C14.2584 5.00892 14.1106 5.31277 13.9134 5.7179C13.7326 6.08621 13.4861 6.58342 13.1739 7.20953C12.8617 7.81724 12.4672 8.61833 11.9907 9.61273C11.9907 8.34208 11.8757 7.35686 11.6456 6.65708C11.432 5.9573 11.1937 5.42326 10.9307 5.05496C10.6185 4.63141 10.2652 4.36439 9.87079 4.2539C9.50928 4.19865 9.14777 4.27232 8.78618 4.47488C8.42467 4.65904 8.06316 4.93526 7.70165 5.30356C7.35654 5.67187 7.01964 6.11383 6.69099 6.62946C6.37876 7.12667 6.09118 7.6515 5.82824 8.20395C5.58175 8.75638 5.37633 9.31809 5.212 9.88891C5.04767 10.4414 4.94086 10.957 4.89155 11.4358C4.84225 11.8594 4.83404 12.3566 4.86691 12.9274C4.89977 13.4799 4.97372 14.0508 5.08875 14.64C5.20379 15.2109 5.35168 15.7726 5.53244 16.325C5.71321 16.8775 5.93506 17.3747 6.19799 17.8167C6.47735 18.2402 6.78958 18.5901 7.1347 18.8663C7.4798 19.1241 7.8742 19.2439 8.31789 19.2255C8.81086 19.1886 9.29564 19.0228 9.77221 18.7282C10.183 18.4888 10.6021 18.1205 11.0294 17.6233C11.4566 17.1077 11.8264 16.3803 12.1386 15.4411L15.7867 16.187C14.735 17.6233 13.708 18.7006 12.7055 19.4188C11.7195 20.137 10.8321 20.6434 10.0433 20.938C9.12309 21.2695 8.25212 21.426 7.43051 21.4076C6.39519 21.2787 5.42563 20.9288 4.52181 20.358C3.61798 19.7871 2.83741 19.0965 2.18008 18.2862C1.53918 17.4576 1.03797 16.5552 0.676439 15.5792C0.314909 14.6032 0.158793 13.6456 0.208093 12.7065C0.240959 12.0803 0.355991 11.3529 0.553189 10.5242C0.750386 9.67716 1.01332 8.81162 1.34198 7.92769C1.68708 7.0438 2.09791 6.17828 2.57448 5.33119C3.05103 4.48409 3.57689 3.72906 4.15206 3.06612C4.72722 2.38476 5.35168 1.84151 6.02544 1.43637C6.71563 1.01283 7.43051 0.801054 8.16994 0.801054ZM16.3838 8.86693L20.9194 8.92217C20.6564 10.0455 20.4593 11.0031 20.3278 11.7949C20.2127 12.5867 20.1388 13.2497 20.106 13.7838C20.0402 14.3914 20.0238 14.9071 20.0567 15.3306C20.106 15.7173 20.1881 16.1316 20.3031 16.5737C20.4018 16.942 20.5497 17.3655 20.7468 17.8443C20.944 18.3231 21.207 18.8019 21.5356 19.2807C21.3384 19.207 21.1248 19.1518 20.8948 19.1149C20.6647 19.0781 20.4511 19.0505 20.2538 19.0321C20.0238 19.0136 19.7937 19.0136 19.5636 19.0321C19.3336 19.0505 19.0788 19.0781 18.7995 19.1149C18.5695 19.1518 18.2901 19.1978 17.9614 19.2531C17.6327 19.3083 17.2876 19.382 16.9261 19.4741C17.1726 18.6454 17.3616 17.9272 17.4931 17.3195C17.641 16.7117 17.7478 16.2053 17.8135 15.8002C17.8793 15.3214 17.9203 14.9347 17.9367 14.64C17.9367 14.2718 17.9367 13.8574 17.9367 13.397C17.9367 12.9182 17.9367 12.4579 17.9367 12.0159C17.9367 11.574 17.9285 11.1872 17.9121 10.8557C17.8957 10.5059 17.8628 10.2848 17.8135 10.1928L17.567 9.91657C17.4684 9.82448 17.3205 9.69555 17.1233 9.52984C16.9426 9.34567 16.6961 9.12473 16.3838 8.86693ZM18.134 4.61299C18.4791 4.41043 18.8242 4.35518 19.1692 4.44726C19.5308 4.53933 19.8101 4.71428 20.0074 4.97209C20.2045 5.2299 20.2703 5.53376 20.2045 5.88364C20.1553 6.23353 19.8923 6.57421 19.4158 6.90568C18.9392 7.21874 18.5202 7.32923 18.1586 7.23716C17.7971 7.14508 17.5423 6.95173 17.3945 6.65708C17.2466 6.36244 17.2219 6.02175 17.3205 5.63504C17.4192 5.2299 17.6903 4.88923 18.134 4.61299ZM23.5377 18.1758C23.6528 17.5681 23.735 17.034 23.7843 16.5737C23.85 16.0949 23.8993 15.699 23.9321 15.3858C23.965 15.0176 23.9814 14.7045 23.9814 14.4467C23.965 14.1337 23.9485 13.7653 23.9321 13.3418C23.9321 12.8998 23.9157 12.4671 23.8828 12.0435C23.8664 11.6015 23.8418 11.2148 23.8089 10.8834C23.7761 10.5334 23.735 10.2848 23.6856 10.1375C23.6199 9.99019 23.5295 9.83368 23.4145 9.66797C23.1844 9.35486 22.8475 9.05103 22.4038 8.75638C22.7818 8.6643 23.1023 8.59068 23.3652 8.53544C23.6446 8.46174 23.8746 8.39731 24.0554 8.34208C24.2526 8.26838 24.4251 8.20395 24.5731 8.14871C24.7045 8.09348 24.8606 8.03824 25.0414 7.98301C25.1893 7.94616 25.3701 7.90011 25.5837 7.84486C25.7973 7.78961 26.0438 7.72516 26.3232 7.6515L26.2492 10.1652C26.7751 9.46541 27.3092 8.94056 27.8515 8.59068C28.3938 8.2408 28.9032 7.9922 29.3797 7.84486C29.9221 7.66071 30.4561 7.56863 30.982 7.56863C31.6393 7.60546 32.2473 7.72516 32.8061 7.92769C33.3812 8.13033 33.8742 8.36966 34.285 8.64591C34.7123 8.90371 35.0574 9.17996 35.3203 9.47461C35.5833 9.76925 35.7394 10.027 35.7887 10.2481C35.9859 10.9662 36.0352 11.6292 35.9366 12.2369C35.838 12.8261 35.7065 13.4062 35.5422 13.9771C35.3943 14.5296 35.2629 15.082 35.1478 15.6344C35.0492 16.187 35.0903 16.7854 35.2711 17.43C35.3368 17.5957 35.4025 17.7615 35.4682 17.9272C35.534 18.0745 35.6162 18.2218 35.7147 18.3691C35.8133 18.5164 35.9284 18.6362 36.0598 18.7282C35.8791 18.7098 35.6983 18.7006 35.5175 18.7006C35.3368 18.6822 35.1725 18.6638 35.0245 18.6454C34.8438 18.6269 34.6794 18.6085 34.5316 18.5901C34.3672 18.5717 34.1454 18.5625 33.866 18.5625C33.3895 18.5625 32.6499 18.5901 31.6475 18.6454C31.7955 18.2587 31.9104 17.9364 31.9926 17.6786C32.0912 17.4023 32.1734 17.1814 32.2391 17.0156C32.3048 16.813 32.3541 16.6565 32.387 16.546C32.5843 16.012 32.6992 15.4043 32.7321 14.7229C32.7814 14.0416 32.7403 13.351 32.6089 12.6512C32.5596 12.4118 32.4774 12.1264 32.3623 11.7949C32.2473 11.4634 32.0912 11.1412 31.894 10.8281C31.7133 10.515 31.4914 10.2481 31.2285 10.027C30.982 9.8061 30.6944 9.67716 30.3657 9.64031C30.037 9.60354 29.6673 9.69555 29.2565 9.91657C28.8621 10.1375 28.4348 10.5427 27.9747 11.132C27.6296 11.6292 27.3584 12.2369 27.1613 12.9551C26.9805 13.5628 26.8573 14.327 26.7915 15.2477C26.7258 16.1501 26.8244 17.2089 27.0873 18.4244C26.8573 18.3875 26.6436 18.3691 26.4465 18.3691C26.2492 18.3507 26.0849 18.3323 25.9534 18.3139C25.7891 18.2955 25.6412 18.277 25.5097 18.2587C25.3619 18.2587 25.1975 18.2495 25.0167 18.231C24.8524 18.231 24.647 18.231 24.4005 18.231C24.154 18.2126 23.8664 18.1941 23.5377 18.1758ZM44.323 16.767C44.7831 16.767 45.2104 16.7117 45.6048 16.6013C45.9334 16.5092 46.2457 16.3619 46.5415 16.1593C46.8537 15.9384 47.0591 15.6161 47.1577 15.1925C47.4864 15.2662 47.7658 15.3306 47.9958 15.3858C48.2258 15.4227 48.4231 15.4595 48.5874 15.4964C48.7682 15.5516 48.9243 15.5884 49.0557 15.6069C49.1872 15.6437 49.3433 15.6805 49.5241 15.7173C49.6884 15.7542 49.8856 15.8002 50.1157 15.8555C50.3622 15.8923 50.6498 15.9476 50.9784 16.0212C50.732 15.9844 50.4772 16.012 50.2143 16.1041C49.9678 16.1962 49.7295 16.2974 49.4995 16.4079C49.2366 16.5368 48.99 16.6934 48.76 16.8775C48.612 16.988 48.4395 17.1537 48.2423 17.3747C48.0616 17.5957 47.7986 17.8075 47.4535 18.0101C47.1084 18.2126 46.6483 18.3875 46.0731 18.5348C45.5144 18.6638 44.7913 18.7098 43.904 18.673C42.8358 18.6362 41.9402 18.4244 41.2172 18.0376C40.4941 17.6325 39.9107 17.1445 39.467 16.5737C39.0233 15.9844 38.7028 15.3491 38.5057 14.6677C38.3084 13.9863 38.2016 13.351 38.1852 12.7617C38.1688 12.1724 38.3249 11.5555 38.6535 10.911C38.9822 10.2664 39.4423 9.67716 40.034 9.14311C40.6419 8.60906 41.3732 8.17629 42.2278 7.84486C43.0823 7.49497 44.0189 7.32003 45.0379 7.32003C45.6294 7.32003 46.1718 7.4029 46.6647 7.56863C47.1741 7.71595 47.6343 7.9185 48.0451 8.17629C48.4724 8.43416 48.8422 8.72881 49.1544 9.06022C49.4666 9.37333 49.7295 9.69555 49.9432 10.027C50.1568 10.3769 50.3376 10.7453 50.4854 11.132C50.6169 11.4634 50.7238 11.8409 50.8059 12.2645C50.888 12.688 50.9127 13.1208 50.8798 13.5628C49.6309 13.5996 48.6203 13.6273 47.8479 13.6456C47.092 13.664 46.5004 13.6732 46.0731 13.6732H44.9639H44.1258C43.83 13.6732 43.4438 13.6825 42.9672 13.7009C42.4907 13.7193 41.9073 13.7469 41.2172 13.7838C41.2993 14.5204 41.5047 15.0912 41.8334 15.4964C42.1784 15.883 42.54 16.1777 42.9179 16.3803C43.3452 16.6013 43.8136 16.7302 44.323 16.767ZM42.1045 11.7949C42.6304 11.8317 43.0659 11.8594 43.411 11.8778C43.7725 11.8962 44.0683 11.9146 44.2984 11.933C44.5448 11.9514 44.742 11.9607 44.8899 11.9607H45.5062C45.917 11.9607 46.6811 11.933 47.7986 11.8778C47.7493 11.0675 47.5932 10.4506 47.3303 10.027C47.0837 9.60354 46.8208 9.29043 46.5415 9.08788C46.2128 8.86693 45.8513 8.738 45.4569 8.70115C44.3887 8.71961 43.5917 8.96821 43.0659 9.44695C42.5564 9.92576 42.236 10.7084 42.1045 11.7949ZM61.0903 0.386713C61.9777 0.423544 62.8733 0.607696 63.7771 0.939166C64.6974 1.25223 65.5437 1.76785 66.3161 2.48604C67.0884 3.18582 67.7458 4.09737 68.288 5.2207C68.8304 6.32561 69.1672 7.67912 69.2987 9.28124C69.4137 10.5887 69.2659 11.887 68.855 13.176C68.4606 14.4467 67.9101 15.6161 67.2035 16.6842C66.4968 17.7523 65.6834 18.6638 64.7632 19.4188C63.8429 20.1554 62.9226 20.6434 62.0024 20.8828C61.4436 21.0301 60.8274 21.0486 60.1537 20.938C59.4963 20.8092 58.8225 20.5789 58.1324 20.2475C57.4586 19.8976 56.7931 19.4556 56.1357 18.9216C55.4948 18.3875 54.9114 17.7798 54.3856 17.0985C53.8597 16.3987 53.416 15.6437 53.0545 14.8334C52.7094 14.0232 52.4958 13.176 52.4136 12.2921C52.3314 11.5555 52.3232 10.7453 52.389 9.86133C52.4711 8.95894 52.6272 8.06582 52.8573 7.18191C53.1038 6.27957 53.4407 5.41405 53.8679 4.58537C54.3116 3.73827 54.8704 3.00167 55.5442 2.37555C56.2179 1.73102 57.0067 1.23381 57.9105 0.883923C58.8307 0.515619 59.8907 0.349882 61.0903 0.386713ZM56.678 11.574C56.4479 13.5444 56.6123 15.1281 57.171 16.325C57.7462 17.522 58.6089 18.2495 59.7593 18.5073C60.3179 18.6362 60.8521 18.5073 61.3615 18.1205C61.8873 17.7154 62.3639 17.1353 62.7912 16.3803C63.2185 15.6253 63.5882 14.7413 63.9004 13.7285C64.2126 12.7157 64.4427 11.6568 64.5906 10.5519C64.7385 9.44695 64.7467 8.45255 64.6152 7.56863C64.5002 6.66629 64.2948 5.90206 63.999 5.27594C63.7032 4.63141 63.3416 4.1342 62.9144 3.78432C62.5036 3.43442 62.0764 3.24107 61.6326 3.20423C60.8603 3.14899 60.1865 3.37918 59.6113 3.8948C59.0362 4.39201 58.5514 5.04575 58.157 5.85602C57.7626 6.66629 57.4422 7.57784 57.1957 8.59068C56.9656 9.60354 56.793 10.5979 56.678 11.574ZM71.3258 18.1758C71.4408 17.5681 71.5228 17.034 71.5719 16.5737C71.6378 16.0949 71.6869 15.699 71.7198 15.3858C71.7528 15.0176 71.7689 14.7045 71.7689 14.4467C71.7528 14.1337 71.736 13.7653 71.7198 13.3418C71.7198 12.8998 71.7037 12.4671 71.6707 12.0435C71.6539 11.6015 71.6294 11.2148 71.5964 10.8834C71.5635 10.5334 71.5228 10.2848 71.4737 10.1375C71.4078 9.99019 71.3174 9.83368 71.2024 9.66797C70.9724 9.35486 70.6351 9.05103 70.1913 8.75638C70.5692 8.6643 70.8897 8.59068 71.1526 8.53544C71.4324 8.46174 71.6623 8.39731 71.8432 8.34208C72.0402 8.26838 72.2127 8.20395 72.3607 8.14871C72.4925 8.09348 72.6481 8.03824 72.829 7.98301C72.977 7.94616 73.1579 7.90011 73.3717 7.84486C73.5849 7.78961 73.8317 7.72516 74.1107 7.6515L74.0371 10.1652C74.563 9.46541 75.0966 8.94056 75.6392 8.59068C76.1812 8.2408 76.691 7.9922 77.1678 7.84486C77.7097 7.66071 78.244 7.56863 78.7699 7.56863C79.4269 7.60546 80.0348 7.72516 80.5936 7.92769C81.1692 8.13033 81.6621 8.36966 82.073 8.64591C82.5 8.90371 82.845 9.17996 83.1079 9.47461C83.3708 9.76925 83.5272 10.027 83.5763 10.2481C83.7733 10.9662 83.8231 11.6292 83.7242 12.2369C83.626 12.8261 83.4942 13.4062 83.3302 13.9771C83.1822 14.5296 83.0504 15.082 82.9354 15.6344C82.8372 16.187 82.8779 16.7854 83.0588 17.43C83.1247 17.5957 83.1899 17.7615 83.2558 17.9272C83.3217 18.0745 83.4038 18.2218 83.5026 18.3691C83.6008 18.5164 83.7158 18.6362 83.8476 18.7282C83.6667 18.7098 83.4858 18.7006 83.3049 18.7006C83.1247 18.6822 82.96 18.6638 82.812 18.6454C82.6318 18.6269 82.467 18.6085 82.3191 18.5901C82.155 18.5717 81.9328 18.5625 81.6537 18.5625C81.1769 18.5625 80.4379 18.5901 79.4353 18.6454C79.5832 18.2587 79.6982 17.9364 79.7802 17.6786C79.8791 17.4023 79.9611 17.1814 80.027 17.0156C80.0922 16.813 80.142 16.6565 80.175 16.546C80.372 16.012 80.487 15.4043 80.52 14.7229C80.569 14.0416 80.5284 13.351 80.3966 12.6512C80.3475 12.4118 80.2654 12.1264 80.1497 11.7949C80.0348 11.4634 79.8791 11.1412 79.6821 10.8281C79.5012 10.515 79.2789 10.2481 79.016 10.027C78.7699 9.8061 78.4824 9.67716 78.1536 9.64031C77.8247 9.60354 77.4552 9.69555 77.0444 9.91657C76.6496 10.1375 76.2226 10.5427 75.7626 11.132C75.417 11.6292 75.1463 12.2369 74.9493 12.9551C74.7684 13.5628 74.645 14.327 74.5791 15.2477C74.5132 16.1501 74.6121 17.2089 74.875 18.4244C74.645 18.3875 74.4312 18.3691 74.2341 18.3691C74.0371 18.3507 73.8724 18.3323 73.7412 18.3139C73.5772 18.2955 73.4292 18.277 73.2974 18.2587C73.1495 18.2587 72.9854 18.2495 72.8045 18.231C72.6404 18.231 72.435 18.231 72.1882 18.231C71.9414 18.2126 71.6539 18.1941 71.3258 18.1758ZM92.1106 16.767C92.5706 16.767 92.9983 16.7117 93.3924 16.6013C93.7212 16.5092 94.0332 16.3619 94.3291 16.1593C94.6411 15.9384 94.8465 15.6161 94.9454 15.1925C95.2742 15.2662 95.5533 15.3306 95.7833 15.3858C96.0139 15.4227 96.211 15.4595 96.375 15.4964C96.5559 15.5516 96.7123 15.5884 96.8434 15.6069C96.9752 15.6437 97.1309 15.6805 97.3118 15.7173C97.4758 15.7542 97.6736 15.8002 97.9035 15.8555C98.1496 15.8923 98.4378 15.9476 98.766 16.0212C98.5199 15.9844 98.2646 16.012 98.0017 16.1041C97.7556 16.1962 97.5172 16.2974 97.2872 16.4079C97.0243 16.5368 96.7775 16.6934 96.5475 16.8775C96.3996 16.988 96.2271 17.1537 96.0301 17.3747C95.8492 17.5957 95.5862 17.8075 95.2413 18.0101C94.8963 18.2126 94.4364 18.3875 93.8607 18.5348C93.3019 18.6638 92.579 18.7098 91.6914 18.673C90.6235 18.6362 89.7281 18.4244 89.0046 18.0376C88.2817 17.6325 87.6983 17.1445 87.2545 16.5737C86.8107 15.9844 86.4902 15.3491 86.2932 14.6677C86.0962 13.9863 85.9896 13.351 85.9728 12.7617C85.9567 12.1724 86.1123 11.5555 86.4412 10.911C86.77 10.2664 87.2299 9.67716 87.8217 9.14311C88.4296 8.60906 89.1609 8.17629 90.0156 7.84486C90.8703 7.49497 91.8071 7.32003 92.8258 7.32003C93.4169 7.32003 93.9596 7.4029 94.4525 7.56863C94.9622 7.71595 95.4222 7.9185 95.833 8.17629C96.26 8.43416 96.6296 8.72881 96.9423 9.06022C97.2543 9.37333 97.5172 9.69555 97.7311 10.027C97.9442 10.3769 98.1251 10.7453 98.2731 11.132C98.4049 11.4634 98.5114 11.8409 98.5935 12.2645C98.6755 12.688 98.7008 13.1208 98.6678 13.5628C97.4184 13.5996 96.408 13.6273 95.6353 13.6456C94.8795 13.664 94.2884 13.6732 93.8607 13.6732H92.7515H91.9136C91.6177 13.6732 91.2314 13.6825 90.7553 13.7009C90.2785 13.7193 89.6952 13.7469 89.0046 13.7838C89.0873 14.5204 89.2927 15.0912 89.6209 15.4964C89.9658 15.883 90.3276 16.1777 90.7056 16.3803C91.1332 16.6013 91.6016 16.7302 92.1106 16.767ZM89.8922 11.7949C90.4181 11.8317 90.8535 11.8594 91.1985 11.8778C91.5602 11.8962 91.8561 11.9146 92.0861 11.933C92.3329 11.9514 92.5299 11.9607 92.6779 11.9607H93.2942C93.7051 11.9607 94.4686 11.933 95.5863 11.8778C95.5372 11.0675 95.3808 10.4506 95.1179 10.027C94.8718 9.60354 94.6088 9.29043 94.3291 9.08788C94.0003 8.86693 93.6392 8.738 93.2444 8.70115C92.1766 8.71961 91.3793 8.96821 90.8535 9.44695C90.3445 9.92576 90.024 10.7084 89.8922 11.7949ZM100.645 1.74023C100.957 1.99804 101.27 2.1914 101.582 2.3203C101.911 2.4308 102.207 2.50446 102.469 2.54129C102.765 2.59654 103.061 2.60574 103.356 2.56891C103.636 2.53208 103.924 2.42159 104.22 2.23744C104.515 2.05329 104.86 1.85993 105.254 1.65736C105.649 1.45479 106.109 1.27985 106.635 1.13253C107.177 0.966792 107.826 0.883923 108.582 0.883923C108.911 0.883923 109.256 0.957583 109.618 1.1049C109.996 1.25223 110.357 1.44558 110.702 1.68498C111.047 1.90596 111.359 2.15457 111.639 2.4308C111.935 2.70702 112.157 2.98326 112.304 3.25948C112.469 3.53571 112.584 3.98688 112.649 4.61299C112.715 5.2207 112.74 5.88364 112.724 6.60183C112.707 7.32003 112.649 8.02905 112.551 8.72881C112.469 9.42856 112.345 9.99946 112.181 10.4414C111.984 10.8281 111.606 11.3254 111.047 11.933C110.571 12.4487 109.856 13.1116 108.902 13.9219C107.95 14.7321 106.668 15.699 105.057 16.8223C106.01 16.8038 106.807 16.7762 107.448 16.7394C108.106 16.6842 108.64 16.6289 109.05 16.5737C109.527 16.5 109.905 16.4263 110.184 16.3527C110.431 16.2422 110.694 16.0857 110.973 15.883C111.204 15.699 111.45 15.4595 111.713 15.1649C111.992 14.8703 112.263 14.4835 112.526 14.0047C112.576 14.9991 112.625 15.7818 112.674 16.3527C112.707 16.6842 112.731 16.9696 112.748 17.2089C112.764 17.43 112.781 17.6878 112.797 17.9824C112.813 18.2402 112.822 18.5348 112.822 18.8663C112.839 19.1978 112.863 19.5477 112.896 19.916C112.074 19.6766 111.326 19.4925 110.653 19.3635C109.979 19.2162 109.404 19.1149 108.927 19.0597C108.369 18.9861 107.868 18.9492 107.424 18.9492C106.964 18.9676 106.454 19.0136 105.895 19.0873C105.402 19.161 104.811 19.2714 104.121 19.4188C103.447 19.5477 102.683 19.7411 101.828 19.9989C101.763 19.7963 101.705 19.5937 101.655 19.3912C101.606 19.1702 101.565 18.9584 101.533 18.7559C101.483 18.5348 101.442 18.3139 101.409 18.0929C101.376 17.8719 101.343 17.6602 101.31 17.4576C101.277 17.2734 101.253 17.0801 101.237 16.8775C101.22 16.675 101.204 16.4816 101.187 16.2974C102.502 15.3583 103.57 14.5112 104.392 13.7561C105.214 12.9827 105.862 12.3289 106.339 11.7949C106.882 11.1688 107.292 10.5979 107.572 10.0823C107.851 9.45622 108.081 8.76558 108.262 8.01059C108.443 7.25558 108.5 6.5558 108.434 5.91127C108.385 5.26673 108.188 4.7419 107.843 4.33677C107.497 3.91322 106.947 3.72906 106.191 3.78432C105.698 3.82114 105.23 4.01451 104.786 4.36439C104.359 4.71428 103.964 5.13783 103.603 5.63504C103.241 6.13225 102.921 6.66629 102.642 7.23716C102.362 7.78961 102.124 8.31442 101.927 8.81162C101.746 9.3089 101.598 9.72321 101.483 10.0547C101.385 10.3862 101.335 10.5611 101.335 10.5795C101.319 10.6163 101.294 10.4782 101.261 10.1652C101.245 9.85214 101.22 9.46541 101.187 9.00498C101.171 8.52625 101.146 8.02905 101.113 7.51339C101.08 6.99776 101.048 6.56501 101.015 6.21512C100.998 5.93889 100.974 5.57979 100.941 5.13783C100.892 4.41964 100.793 3.2871 100.645 1.74023ZM115.243 4.08816C115.819 3.88559 116.287 3.71986 116.648 3.59095C117.01 3.44363 117.306 3.32393 117.536 3.23186C117.799 3.12137 117.996 3.02008 118.128 2.92801L118.719 2.59654C118.949 2.46763 119.244 2.30189 119.606 2.09933C119.968 1.87834 120.436 1.60211 121.011 1.27064C120.88 1.97042 120.781 2.63336 120.715 3.25948C120.666 3.86718 120.625 4.41043 120.592 4.88923C120.543 5.44168 120.518 5.94809 120.518 6.40847C120.502 6.7952 120.477 7.31082 120.444 7.95535C120.428 8.59987 120.403 9.29963 120.37 10.0547C120.338 10.8097 120.305 11.5831 120.272 12.375C120.239 13.1668 120.214 13.9126 120.198 14.6125C120.198 15.2938 120.206 15.883 120.223 16.3803C120.255 16.8775 120.313 17.2182 120.395 17.4023C120.477 17.6233 120.584 17.8351 120.715 18.0376C120.83 18.2218 120.962 18.4336 121.109 18.673C121.274 18.894 121.471 19.1149 121.701 19.3359C121.323 19.428 120.97 19.5108 120.641 19.5845C120.313 19.6398 120.026 19.6858 119.779 19.7227C119.483 19.7779 119.22 19.824 118.99 19.8607C118.743 19.8792 118.407 19.9252 117.98 19.9989C117.618 20.0541 117.158 20.1278 116.599 20.2199C116.04 20.2935 115.35 20.3764 114.528 20.4685C114.955 20.1738 115.293 19.8884 115.539 19.6121C115.802 19.3359 115.999 19.0965 116.131 18.894C116.279 18.6546 116.369 18.4244 116.402 18.2034C116.418 18.0561 116.443 17.6602 116.476 17.0156C116.525 16.3527 116.566 15.5792 116.599 14.6953C116.648 13.793 116.689 12.8353 116.722 11.8226C116.771 10.7913 116.804 9.83368 116.821 8.94975C116.837 8.06582 116.845 7.31082 116.845 6.6847C116.845 6.05859 116.821 5.68108 116.771 5.55217C116.706 5.42326 116.607 5.27594 116.476 5.11021C116.361 4.96289 116.204 4.80636 116.007 4.64062C115.826 4.47488 115.572 4.29073 115.243 4.08816Z" fill="#394BA7"/>
</svg>
