<svg width="58" height="12" viewBox="0 0 58 12" fill="none" xmlns="http://www.w3.org/2000/svg">
<path d="M2.87 5.12169V8.66369C2.87 9.14903 2.97267 9.49436 3.178 9.69969C3.39267 9.89569 3.68667 9.99369 4.06 9.99369C4.30267 9.99369 4.55 9.95636 4.802 9.88169V11.0297C4.494 11.1324 4.144 11.1837 3.752 11.1837C3.024 11.1837 2.45933 10.9784 2.058 10.5677C1.65667 10.157 1.456 9.55969 1.456 8.77569V5.12169H0.084V4.02969H1.456V2.26569L2.87 1.77569V4.02969H4.816V5.12169H2.87ZM6.62194 4.02969H8.02194V11.0857H6.62194V4.02969ZM8.13394 0.949693V2.43369H6.49594V0.949693H8.13394ZM13.6606 11.1837C12.9513 11.1837 12.3306 11.0344 11.7986 10.7357C11.2759 10.437 10.8746 10.017 10.5946 9.47569C10.3146 8.92503 10.1746 8.28569 10.1746 7.55769C10.1746 6.82969 10.3193 6.18569 10.6086 5.62569C10.9073 5.06569 11.3226 4.63169 11.8546 4.32369C12.3866 4.01569 13.0073 3.86169 13.7166 3.86169C14.2113 3.86169 14.6873 3.94569 15.1446 4.11369C15.6019 4.27236 15.9706 4.49169 16.2506 4.77169L15.8166 5.79369C15.1539 5.27103 14.4866 5.00969 13.8146 5.00969C13.1333 5.00969 12.6013 5.23369 12.2186 5.68169C11.8359 6.12036 11.6446 6.74103 11.6446 7.54369C11.6446 8.34636 11.8359 8.96703 12.2186 9.40569C12.6013 9.83503 13.1333 10.0497 13.8146 10.0497C14.5053 10.0497 15.1726 9.78836 15.8166 9.26569L16.2506 10.2877C15.9519 10.5677 15.5693 10.787 15.1026 10.9457C14.6453 11.1044 14.1646 11.1837 13.6606 11.1837ZM22.8549 11.0857L19.4809 7.75369V11.0857H18.0809V0.781693H19.4809V7.22169L22.6169 4.04369H24.3669L20.9929 7.43169L24.6609 11.0857H22.8549ZM26.0184 4.02969H27.4184V11.0857H26.0184V4.02969ZM27.5304 0.949693V2.43369H25.8924V0.949693H27.5304ZM31.8251 5.12169V8.66369C31.8251 9.14903 31.9277 9.49436 32.1331 9.69969C32.3477 9.89569 32.6417 9.99369 33.0151 9.99369C33.2577 9.99369 33.5051 9.95636 33.7571 9.88169V11.0297C33.4491 11.1324 33.0991 11.1837 32.7071 11.1837C31.9791 11.1837 31.4144 10.9784 31.0131 10.5677C30.6117 10.157 30.4111 9.55969 30.4111 8.77569V5.12169H29.0391V4.02969H30.4111V2.26569L31.8251 1.77569V4.02969H33.7711V5.12169H31.8251ZM41.3024 9.99369V11.0857H35.2684V10.1057L39.4404 5.12169H35.3804V4.02969H41.1484V5.02369L36.9764 9.99369H41.3024ZM44.9028 9.40569V11.0857H43.2228V9.40569H44.9028ZM47.2821 4.02969H48.6821V11.0857H47.2821V4.02969ZM48.7941 0.949693V2.43369H47.1561V0.949693H48.7941ZM57.7088 0.781693V11.0857H56.3088V9.88169C56.1034 10.3017 55.7954 10.6237 55.3848 10.8477C54.9834 11.0717 54.5121 11.1837 53.9708 11.1837C53.3641 11.1837 52.8228 11.0297 52.3468 10.7217C51.8708 10.4137 51.4974 9.98436 51.2268 9.43369C50.9654 8.87369 50.8348 8.22969 50.8348 7.50169C50.8348 6.77369 50.9654 6.13436 51.2268 5.58369C51.4881 5.03303 51.8521 4.60836 52.3188 4.30969C52.7948 4.01103 53.3454 3.86169 53.9708 3.86169C54.5028 3.86169 54.9694 3.97369 55.3708 4.19769C55.7814 4.42169 56.0894 4.73903 56.2948 5.14969V0.781693H57.7088ZM54.2928 10.0637C54.9368 10.0637 55.4314 9.84436 55.7768 9.40569C56.1314 8.95769 56.3088 8.33236 56.3088 7.52969C56.3088 6.72703 56.1314 6.10636 55.7768 5.66769C55.4314 5.21969 54.9414 4.99569 54.3068 4.99569C53.6628 4.99569 53.1588 5.21503 52.7948 5.65369C52.4401 6.09236 52.2628 6.70836 52.2628 7.50169C52.2628 8.30436 52.4401 8.93436 52.7948 9.39169C53.1588 9.83969 53.6581 10.0637 54.2928 10.0637Z" fill="#6E7191"/>
</svg>
